<svg width="56" height="50" viewBox="0 0 56 50" fill="none" xmlns="http://www.w3.org/2000/svg">
<path d="M13.4633 40.9665C13.633 41.0683 13.8197 41.221 14.0233 41.4247C14.2185 41.6198 14.3712 41.8065 14.4815 41.9847L10.4086 46.0576C10.2304 45.9473 10.0437 45.7946 9.84858 45.5994C9.64494 45.3958 9.4922 45.2091 9.39038 45.0394L13.4633 40.9665ZM18.5595 35.8703C18.7292 35.9722 18.9158 36.1249 19.1195 36.3285C19.3146 36.5237 19.4674 36.7104 19.5777 36.8886L15.5048 40.9615C15.3266 40.8512 15.1399 40.6985 14.9447 40.5033C14.7411 40.2997 14.5883 40.113 14.4865 39.9433L18.5595 35.8703ZM23.6556 30.7742C23.8253 30.876 24.012 31.0288 24.2156 31.2324C24.4108 31.4276 24.5635 31.6142 24.6738 31.7924L20.6009 35.8654C20.4227 35.7551 20.236 35.6023 20.0409 35.4072C19.8372 35.2035 19.6845 35.0168 19.5827 34.8471L23.6556 30.7742ZM28.7517 25.6781C28.9214 25.7799 29.1081 25.9326 29.3118 26.1363C29.5069 26.3314 29.6597 26.5181 29.77 26.6963L25.697 30.7692C25.5188 30.6589 25.3322 30.5062 25.137 30.311C24.9334 30.1074 24.7806 29.9207 24.6788 29.751L28.7517 25.6781ZM33.8479 20.5819C34.0176 20.6837 34.2043 20.8365 34.4079 21.0401C34.6031 21.2353 34.7558 21.422 34.8661 21.6001L30.7932 25.6731C30.615 25.5628 30.4283 25.41 30.2331 25.2149C30.0295 25.0112 29.8768 24.8246 29.7749 24.6548L33.8479 20.5819ZM38.944 15.4858C39.1137 15.5876 39.3004 15.7403 39.504 15.944C39.6992 16.1391 39.8519 16.3258 39.9622 16.504L35.8893 20.5769C35.7111 20.4666 35.5244 20.3139 35.3293 20.1187C35.1256 19.9151 34.9729 19.7284 34.8711 19.5587L38.944 15.4858ZM44.0402 10.3896C44.2099 10.4915 44.3965 10.6442 44.6002 10.8478C44.7953 11.043 44.9481 11.2297 45.0584 11.4079L40.9855 15.4808C40.8073 15.3705 40.6206 15.2178 40.4254 15.0226C40.2218 14.8189 40.069 14.6323 39.9672 14.4626L44.0402 10.3896Z" fill="#B1B1B1"/>
<path d="M15.3241 14.4633C15.2223 14.633 15.0695 14.8197 14.8659 15.0233C14.6707 15.2185 14.484 15.3712 14.3058 15.4815L10.2329 11.4086C10.3432 11.2304 10.496 11.0437 10.6911 10.8486C10.8948 10.6449 11.0814 10.4922 11.2511 10.3904L15.3241 14.4633ZM20.4202 19.5595C20.3184 19.7292 20.1657 19.9158 19.962 20.1195C19.7669 20.3146 19.5802 20.4674 19.402 20.5777L15.3291 16.5048C15.4394 16.3266 15.5921 16.1399 15.7873 15.9447C15.9909 15.7411 16.1776 15.5883 16.3473 15.4865L20.4202 19.5595ZM25.5164 24.6556C25.4145 24.8253 25.2618 25.012 25.0582 25.2156C24.863 25.4108 24.6763 25.5635 24.4981 25.6738L20.4252 21.6009C20.5355 21.4227 20.6882 21.236 20.8834 21.0409C21.087 20.8372 21.2737 20.6845 21.4434 20.5827L25.5164 24.6556ZM30.6125 29.7517C30.5107 29.9214 30.3579 30.1081 30.1543 30.3118C29.9591 30.5069 29.7725 30.6597 29.5943 30.77L25.5213 26.697C25.6316 26.5188 25.7844 26.3322 25.9795 26.137C26.1832 25.9334 26.3699 25.7806 26.5396 25.6788L30.6125 29.7517ZM35.7086 34.8479C35.6068 35.0176 35.4541 35.2043 35.2504 35.4079C35.0553 35.6031 34.8686 35.7558 34.6904 35.8661L30.6175 31.7932C30.7278 31.615 30.8805 31.4283 31.0757 31.2331C31.2793 31.0295 31.466 30.8768 31.6357 30.7749L35.7086 34.8479ZM40.8048 39.944C40.703 40.1137 40.5502 40.3004 40.3466 40.504C40.1514 40.6992 39.9647 40.8519 39.7866 40.9622L35.7136 36.8893C35.8239 36.7111 35.9767 36.5244 36.1718 36.3293C36.3755 36.1256 36.5621 35.9729 36.7318 35.8711L40.8048 39.944ZM45.9009 45.0402C45.7991 45.2099 45.6464 45.3965 45.4427 45.6002C45.2476 45.7953 45.0609 45.9481 44.8827 46.0584L40.8098 41.9855C40.9201 41.8073 41.0728 41.6206 41.268 41.4254C41.4716 41.2218 41.6583 41.069 41.828 40.9672L45.9009 45.0402Z" fill="#B1B1B1"/>
</svg>
