<svg width="128" height="89" viewBox="0 0 128 89" fill="none" xmlns="http://www.w3.org/2000/svg">
<path d="M8.82 19.76C8.89467 20.0587 8.932 20.432 8.932 20.88C8.932 21.3093 8.89467 21.6827 8.82 22H6.58C6.50533 21.6827 6.468 21.3093 6.468 20.88C6.468 20.432 6.50533 20.0587 6.58 19.76H5.18C5.10533 19.4427 5.068 19.0693 5.068 18.64C5.068 18.192 5.10533 17.8187 5.18 17.52H3.78C3.70533 17.2027 3.668 16.8293 3.668 16.4C3.668 15.952 3.70533 15.5787 3.78 15.28H2.38C2.30533 14.9627 2.268 14.5893 2.268 14.16C2.268 13.712 2.30533 13.3387 2.38 13.04H3.78C3.70533 12.7227 3.668 12.3493 3.668 11.92C3.668 11.472 3.70533 11.0987 3.78 10.8H5.18C5.10533 10.4827 5.068 10.1093 5.068 9.68C5.068 9.232 5.10533 8.85867 5.18 8.56H6.58C6.50533 8.24267 6.468 7.86933 6.468 7.44C6.468 6.992 6.50533 6.61867 6.58 6.32H8.82C8.89467 6.61867 8.932 6.992 8.932 7.44C8.932 7.86933 8.89467 8.24267 8.82 8.56H7.42C7.49467 8.85867 7.532 9.232 7.532 9.68C7.532 10.1093 7.49467 10.4827 7.42 10.8H6.02C6.09467 11.0987 6.132 11.472 6.132 11.92C6.132 12.3493 6.09467 12.7227 6.02 13.04H4.62C4.69467 13.3387 4.732 13.712 4.732 14.16C4.732 14.5893 4.69467 14.9627 4.62 15.28H6.02C6.09467 15.5787 6.132 15.952 6.132 16.4C6.132 16.8293 6.09467 17.2027 6.02 17.52H7.42C7.49467 17.8187 7.532 18.192 7.532 18.64C7.532 19.0693 7.49467 19.4427 7.42 19.76H8.82Z" fill="#7CAAAD"/>
<path d="M18.3229 7.44C18.3229 7.86933 18.2856 8.24267 18.2109 8.56H15.4109C15.3363 8.24267 15.2989 7.86933 15.2989 7.44C15.2989 6.992 15.3363 6.61867 15.4109 6.32H18.2109C18.2856 6.61867 18.3229 6.992 18.3229 7.44ZM15.4109 17.52C15.4856 17.8187 15.5229 18.192 15.5229 18.64C15.5229 19.0693 15.4856 19.4427 15.4109 19.76H14.0109C13.9363 19.4427 13.8989 19.0693 13.8989 18.64C13.8989 18.192 13.9363 17.8187 14.0109 17.52H13.1709C13.0963 17.2027 13.0589 16.8293 13.0589 16.4C13.0589 15.952 13.0963 15.5787 13.1709 15.28C13.0963 14.9627 13.0589 14.5893 13.0589 14.16C13.0589 13.712 13.0963 13.3387 13.1709 13.04C13.0963 12.7227 13.0589 12.3493 13.0589 11.92C13.0589 11.472 13.0963 11.0987 13.1709 10.8H14.0109C13.9363 10.4827 13.8989 10.1093 13.8989 9.68C13.8989 9.232 13.9363 8.85867 14.0109 8.56H15.4109C15.4856 8.85867 15.5229 9.232 15.5229 9.68C15.5229 10.1093 15.4856 10.4827 15.4109 10.8C15.4856 11.0987 15.5229 11.472 15.5229 11.92C15.5229 12.3493 15.4856 12.7227 15.4109 13.04C15.4856 13.3387 15.5229 13.712 15.5229 14.16C15.5229 14.5893 15.4856 14.9627 15.4109 15.28C15.4856 15.5787 15.5229 15.952 15.5229 16.4C15.5229 16.8293 15.4856 17.2027 15.4109 17.52ZM20.4509 13.04C20.5256 13.3387 20.5629 13.712 20.5629 14.16C20.5629 14.5893 20.5256 14.9627 20.4509 15.28C20.5256 15.5787 20.5629 15.952 20.5629 16.4C20.5629 16.8293 20.5256 17.2027 20.4509 17.52H19.6109C19.6856 17.8187 19.7229 18.192 19.7229 18.64C19.7229 19.0693 19.6856 19.4427 19.6109 19.76H18.2109C18.1363 19.4427 18.0989 19.0693 18.0989 18.64C18.0989 18.192 18.1363 17.8187 18.2109 17.52C18.1363 17.2027 18.0989 16.8293 18.0989 16.4C18.0989 15.952 18.1363 15.5787 18.2109 15.28C18.1363 14.9627 18.0989 14.5893 18.0989 14.16C18.0989 13.712 18.1363 13.3387 18.2109 13.04C18.1363 12.7227 18.0989 12.3493 18.0989 11.92C18.0989 11.472 18.1363 11.0987 18.2109 10.8C18.1363 10.4827 18.0989 10.1093 18.0989 9.68C18.0989 9.232 18.1363 8.85867 18.2109 8.56H19.6109C19.6856 8.85867 19.7229 9.232 19.7229 9.68C19.7229 10.1093 19.6856 10.4827 19.6109 10.8H20.4509C20.5256 11.0987 20.5629 11.472 20.5629 11.92C20.5629 12.3493 20.5256 12.7227 20.4509 13.04ZM15.2989 20.88C15.2989 20.432 15.3363 20.0587 15.4109 19.76H18.2109C18.2856 20.0587 18.3229 20.432 18.3229 20.88C18.3229 21.3093 18.2856 21.6827 18.2109 22H15.4109C15.3363 21.6827 15.2989 21.3093 15.2989 20.88ZM31.3819 19.76C31.4565 20.0587 31.4939 20.432 31.4939 20.88C31.4939 21.3093 31.4565 21.6827 31.3819 22H24.6619C24.5872 21.6827 24.5499 21.3093 24.5499 20.88C24.5499 20.432 24.5872 20.0587 24.6619 19.76H26.9019C26.8272 19.4427 26.7899 19.0693 26.7899 18.64C26.7899 18.192 26.8272 17.8187 26.9019 17.52C26.8272 17.2027 26.7899 16.8293 26.7899 16.4C26.7899 15.952 26.8272 15.5787 26.9019 15.28C26.8272 14.9627 26.7899 14.5893 26.7899 14.16C26.7899 13.712 26.8272 13.3387 26.9019 13.04C26.8272 12.7227 26.7899 12.3493 26.7899 11.92C26.7899 11.472 26.8272 11.0987 26.9019 10.8H25.2219C25.1472 10.4827 25.1099 10.1093 25.1099 9.68C25.1099 9.232 25.1472 8.85867 25.2219 8.56H26.9019C26.8272 8.24267 26.7899 7.86933 26.7899 7.44C26.7899 6.992 26.8272 6.61867 26.9019 6.32H29.1419C29.2165 6.61867 29.2539 6.992 29.2539 7.44C29.2539 7.86933 29.2165 8.24267 29.1419 8.56C29.2165 8.85867 29.2539 9.232 29.2539 9.68C29.2539 10.1093 29.2165 10.4827 29.1419 10.8C29.2165 11.0987 29.2539 11.472 29.2539 11.92C29.2539 12.3493 29.2165 12.7227 29.1419 13.04C29.2165 13.3387 29.2539 13.712 29.2539 14.16C29.2539 14.5893 29.2165 14.9627 29.1419 15.28C29.2165 15.5787 29.2539 15.952 29.2539 16.4C29.2539 16.8293 29.2165 17.2027 29.1419 17.52C29.2165 17.8187 29.2539 18.192 29.2539 18.64C29.2539 19.0693 29.2165 19.4427 29.1419 19.76H31.3819ZM40.7448 7.44C40.7448 7.86933 40.7075 8.24267 40.6328 8.56H37.8328C37.7581 8.24267 37.7208 7.86933 37.7208 7.44C37.7208 6.992 37.7581 6.61867 37.8328 6.32H40.6328C40.7075 6.61867 40.7448 6.992 40.7448 7.44ZM37.8328 17.52C37.9075 17.8187 37.9448 18.192 37.9448 18.64C37.9448 19.0693 37.9075 19.4427 37.8328 19.76H36.4328C36.3581 19.4427 36.3208 19.0693 36.3208 18.64C36.3208 18.192 36.3581 17.8187 36.4328 17.52H35.5928C35.5181 17.2027 35.4808 16.8293 35.4808 16.4C35.4808 15.952 35.5181 15.5787 35.5928 15.28C35.5181 14.9627 35.4808 14.5893 35.4808 14.16C35.4808 13.712 35.5181 13.3387 35.5928 13.04C35.5181 12.7227 35.4808 12.3493 35.4808 11.92C35.4808 11.472 35.5181 11.0987 35.5928 10.8H36.4328C36.3581 10.4827 36.3208 10.1093 36.3208 9.68C36.3208 9.232 36.3581 8.85867 36.4328 8.56H37.8328C37.9075 8.85867 37.9448 9.232 37.9448 9.68C37.9448 10.1093 37.9075 10.4827 37.8328 10.8C37.9075 11.0987 37.9448 11.472 37.9448 11.92C37.9448 12.3493 37.9075 12.7227 37.8328 13.04C37.9075 13.3387 37.9448 13.712 37.9448 14.16C37.9448 14.5893 37.9075 14.9627 37.8328 15.28C37.9075 15.5787 37.9448 15.952 37.9448 16.4C37.9448 16.8293 37.9075 17.2027 37.8328 17.52ZM42.8728 13.04C42.9475 13.3387 42.9848 13.712 42.9848 14.16C42.9848 14.5893 42.9475 14.9627 42.8728 15.28C42.9475 15.5787 42.9848 15.952 42.9848 16.4C42.9848 16.8293 42.9475 17.2027 42.8728 17.52H42.0328C42.1075 17.8187 42.1448 18.192 42.1448 18.64C42.1448 19.0693 42.1075 19.4427 42.0328 19.76H40.6328C40.5581 19.4427 40.5208 19.0693 40.5208 18.64C40.5208 18.192 40.5581 17.8187 40.6328 17.52C40.5581 17.2027 40.5208 16.8293 40.5208 16.4C40.5208 15.952 40.5581 15.5787 40.6328 15.28C40.5581 14.9627 40.5208 14.5893 40.5208 14.16C40.5208 13.712 40.5581 13.3387 40.6328 13.04C40.5581 12.7227 40.5208 12.3493 40.5208 11.92C40.5208 11.472 40.5581 11.0987 40.6328 10.8C40.5581 10.4827 40.5208 10.1093 40.5208 9.68C40.5208 9.232 40.5581 8.85867 40.6328 8.56H42.0328C42.1075 8.85867 42.1448 9.232 42.1448 9.68C42.1448 10.1093 42.1075 10.4827 42.0328 10.8H42.8728C42.9475 11.0987 42.9848 11.472 42.9848 11.92C42.9848 12.3493 42.9475 12.7227 42.8728 13.04ZM37.7208 20.88C37.7208 20.432 37.7581 20.0587 37.8328 19.76H40.6328C40.7075 20.0587 40.7448 20.432 40.7448 20.88C40.7448 21.3093 40.7075 21.6827 40.6328 22H37.8328C37.7581 21.6827 37.7208 21.3093 37.7208 20.88ZM51.9558 7.44C51.9558 7.86933 51.9184 8.24267 51.8438 8.56H49.0438C48.9691 8.24267 48.9318 7.86933 48.9318 7.44C48.9318 6.992 48.9691 6.61867 49.0438 6.32H51.8438C51.9184 6.61867 51.9558 6.992 51.9558 7.44ZM49.0438 17.52C49.1184 17.8187 49.1558 18.192 49.1558 18.64C49.1558 19.0693 49.1184 19.4427 49.0438 19.76H47.6438C47.5691 19.4427 47.5318 19.0693 47.5318 18.64C47.5318 18.192 47.5691 17.8187 47.6438 17.52H46.8038C46.7291 17.2027 46.6917 16.8293 46.6917 16.4C46.6917 15.952 46.7291 15.5787 46.8038 15.28C46.7291 14.9627 46.6917 14.5893 46.6917 14.16C46.6917 13.712 46.7291 13.3387 46.8038 13.04C46.7291 12.7227 46.6917 12.3493 46.6917 11.92C46.6917 11.472 46.7291 11.0987 46.8038 10.8H47.6438C47.5691 10.4827 47.5318 10.1093 47.5318 9.68C47.5318 9.232 47.5691 8.85867 47.6438 8.56H49.0438C49.1184 8.85867 49.1558 9.232 49.1558 9.68C49.1558 10.1093 49.1184 10.4827 49.0438 10.8C49.1184 11.0987 49.1558 11.472 49.1558 11.92C49.1558 12.3493 49.1184 12.7227 49.0438 13.04C49.1184 13.3387 49.1558 13.712 49.1558 14.16C49.1558 14.5893 49.1184 14.9627 49.0438 15.28C49.1184 15.5787 49.1558 15.952 49.1558 16.4C49.1558 16.8293 49.1184 17.2027 49.0438 17.52ZM54.0838 13.04C54.1584 13.3387 54.1958 13.712 54.1958 14.16C54.1958 14.5893 54.1584 14.9627 54.0838 15.28C54.1584 15.5787 54.1958 15.952 54.1958 16.4C54.1958 16.8293 54.1584 17.2027 54.0838 17.52H53.2438C53.3184 17.8187 53.3558 18.192 53.3558 18.64C53.3558 19.0693 53.3184 19.4427 53.2438 19.76H51.8438C51.7691 19.4427 51.7318 19.0693 51.7318 18.64C51.7318 18.192 51.7691 17.8187 51.8438 17.52C51.7691 17.2027 51.7318 16.8293 51.7318 16.4C51.7318 15.952 51.7691 15.5787 51.8438 15.28C51.7691 14.9627 51.7318 14.5893 51.7318 14.16C51.7318 13.712 51.7691 13.3387 51.8438 13.04C51.7691 12.7227 51.7318 12.3493 51.7318 11.92C51.7318 11.472 51.7691 11.0987 51.8438 10.8C51.7691 10.4827 51.7318 10.1093 51.7318 9.68C51.7318 9.232 51.7691 8.85867 51.8438 8.56H53.2438C53.3184 8.85867 53.3558 9.232 53.3558 9.68C53.3558 10.1093 53.3184 10.4827 53.2438 10.8H54.0838C54.1584 11.0987 54.1958 11.472 54.1958 11.92C54.1958 12.3493 54.1584 12.7227 54.0838 13.04ZM48.9318 20.88C48.9318 20.432 48.9691 20.0587 49.0438 19.76H51.8438C51.9184 20.0587 51.9558 20.432 51.9558 20.88C51.9558 21.3093 51.9184 21.6827 51.8438 22H49.0438C48.9691 21.6827 48.9318 21.3093 48.9318 20.88ZM18.3229 35.44C18.3229 35.8693 18.2856 36.2427 18.2109 36.56H15.4109C15.3363 36.2427 15.2989 35.8693 15.2989 35.44C15.2989 34.992 15.3363 34.6187 15.4109 34.32H18.2109C18.2856 34.6187 18.3229 34.992 18.3229 35.44ZM15.4109 45.52C15.4856 45.8187 15.5229 46.192 15.5229 46.64C15.5229 47.0693 15.4856 47.4427 15.4109 47.76H14.0109C13.9363 47.4427 13.8989 47.0693 13.8989 46.64C13.8989 46.192 13.9363 45.8187 14.0109 45.52H13.1709C13.0963 45.2027 13.0589 44.8293 13.0589 44.4C13.0589 43.952 13.0963 43.5787 13.1709 43.28C13.0963 42.9627 13.0589 42.5893 13.0589 42.16C13.0589 41.712 13.0963 41.3387 13.1709 41.04C13.0963 40.7227 13.0589 40.3493 13.0589 39.92C13.0589 39.472 13.0963 39.0987 13.1709 38.8H14.0109C13.9363 38.4827 13.8989 38.1093 13.8989 37.68C13.8989 37.232 13.9363 36.8587 14.0109 36.56H15.4109C15.4856 36.8587 15.5229 37.232 15.5229 37.68C15.5229 38.1093 15.4856 38.4827 15.4109 38.8C15.4856 39.0987 15.5229 39.472 15.5229 39.92C15.5229 40.3493 15.4856 40.7227 15.4109 41.04C15.4856 41.3387 15.5229 41.712 15.5229 42.16C15.5229 42.5893 15.4856 42.9627 15.4109 43.28C15.4856 43.5787 15.5229 43.952 15.5229 44.4C15.5229 44.8293 15.4856 45.2027 15.4109 45.52ZM20.4509 41.04C20.5256 41.3387 20.5629 41.712 20.5629 42.16C20.5629 42.5893 20.5256 42.9627 20.4509 43.28C20.5256 43.5787 20.5629 43.952 20.5629 44.4C20.5629 44.8293 20.5256 45.2027 20.4509 45.52H19.6109C19.6856 45.8187 19.7229 46.192 19.7229 46.64C19.7229 47.0693 19.6856 47.4427 19.6109 47.76H18.2109C18.1363 47.4427 18.0989 47.0693 18.0989 46.64C18.0989 46.192 18.1363 45.8187 18.2109 45.52C18.1363 45.2027 18.0989 44.8293 18.0989 44.4C18.0989 43.952 18.1363 43.5787 18.2109 43.28C18.1363 42.9627 18.0989 42.5893 18.0989 42.16C18.0989 41.712 18.1363 41.3387 18.2109 41.04C18.1363 40.7227 18.0989 40.3493 18.0989 39.92C18.0989 39.472 18.1363 39.0987 18.2109 38.8C18.1363 38.4827 18.0989 38.1093 18.0989 37.68C18.0989 37.232 18.1363 36.8587 18.2109 36.56H19.6109C19.6856 36.8587 19.7229 37.232 19.7229 37.68C19.7229 38.1093 19.6856 38.4827 19.6109 38.8H20.4509C20.5256 39.0987 20.5629 39.472 20.5629 39.92C20.5629 40.3493 20.5256 40.7227 20.4509 41.04ZM15.2989 48.88C15.2989 48.432 15.3363 48.0587 15.4109 47.76H18.2109C18.2856 48.0587 18.3229 48.432 18.3229 48.88C18.3229 49.3093 18.2856 49.6827 18.2109 50H15.4109C15.3363 49.6827 15.2989 49.3093 15.2989 48.88ZM31.3819 47.76C31.4565 48.0587 31.4939 48.432 31.4939 48.88C31.4939 49.3093 31.4565 49.6827 31.3819 50H24.6619C24.5872 49.6827 24.5499 49.3093 24.5499 48.88C24.5499 48.432 24.5872 48.0587 24.6619 47.76H26.9019C26.8272 47.4427 26.7899 47.0693 26.7899 46.64C26.7899 46.192 26.8272 45.8187 26.9019 45.52C26.8272 45.2027 26.7899 44.8293 26.7899 44.4C26.7899 43.952 26.8272 43.5787 26.9019 43.28C26.8272 42.9627 26.7899 42.5893 26.7899 42.16C26.7899 41.712 26.8272 41.3387 26.9019 41.04C26.8272 40.7227 26.7899 40.3493 26.7899 39.92C26.7899 39.472 26.8272 39.0987 26.9019 38.8H25.2219C25.1472 38.4827 25.1099 38.1093 25.1099 37.68C25.1099 37.232 25.1472 36.8587 25.2219 36.56H26.9019C26.8272 36.2427 26.7899 35.8693 26.7899 35.44C26.7899 34.992 26.8272 34.6187 26.9019 34.32H29.1419C29.2165 34.6187 29.2539 34.992 29.2539 35.44C29.2539 35.8693 29.2165 36.2427 29.1419 36.56C29.2165 36.8587 29.2539 37.232 29.2539 37.68C29.2539 38.1093 29.2165 38.4827 29.1419 38.8C29.2165 39.0987 29.2539 39.472 29.2539 39.92C29.2539 40.3493 29.2165 40.7227 29.1419 41.04C29.2165 41.3387 29.2539 41.712 29.2539 42.16C29.2539 42.5893 29.2165 42.9627 29.1419 43.28C29.2165 43.5787 29.2539 43.952 29.2539 44.4C29.2539 44.8293 29.2165 45.2027 29.1419 45.52C29.2165 45.8187 29.2539 46.192 29.2539 46.64C29.2539 47.0693 29.2165 47.4427 29.1419 47.76H31.3819ZM42.5928 47.76C42.6675 48.0587 42.7048 48.432 42.7048 48.88C42.7048 49.3093 42.6675 49.6827 42.5928 50H35.8728C35.7981 49.6827 35.7608 49.3093 35.7608 48.88C35.7608 48.432 35.7981 48.0587 35.8728 47.76H38.1128C38.0381 47.4427 38.0008 47.0693 38.0008 46.64C38.0008 46.192 38.0381 45.8187 38.1128 45.52C38.0381 45.2027 38.0008 44.8293 38.0008 44.4C38.0008 43.952 38.0381 43.5787 38.1128 43.28C38.0381 42.9627 38.0008 42.5893 38.0008 42.16C38.0008 41.712 38.0381 41.3387 38.1128 41.04C38.0381 40.7227 38.0008 40.3493 38.0008 39.92C38.0008 39.472 38.0381 39.0987 38.1128 38.8H36.4328C36.3581 38.4827 36.3208 38.1093 36.3208 37.68C36.3208 37.232 36.3581 36.8587 36.4328 36.56H38.1128C38.0381 36.2427 38.0008 35.8693 38.0008 35.44C38.0008 34.992 38.0381 34.6187 38.1128 34.32H40.3528C40.4275 34.6187 40.4648 34.992 40.4648 35.44C40.4648 35.8693 40.4275 36.2427 40.3528 36.56C40.4275 36.8587 40.4648 37.232 40.4648 37.68C40.4648 38.1093 40.4275 38.4827 40.3528 38.8C40.4275 39.0987 40.4648 39.472 40.4648 39.92C40.4648 40.3493 40.4275 40.7227 40.3528 41.04C40.4275 41.3387 40.4648 41.712 40.4648 42.16C40.4648 42.5893 40.4275 42.9627 40.3528 43.28C40.4275 43.5787 40.4648 43.952 40.4648 44.4C40.4648 44.8293 40.4275 45.2027 40.3528 45.52C40.4275 45.8187 40.4648 46.192 40.4648 46.64C40.4648 47.0693 40.4275 47.4427 40.3528 47.76H42.5928ZM51.9558 35.44C51.9558 35.8693 51.9184 36.2427 51.8438 36.56H49.0438C48.9691 36.2427 48.9318 35.8693 48.9318 35.44C48.9318 34.992 48.9691 34.6187 49.0438 34.32H51.8438C51.9184 34.6187 51.9558 34.992 51.9558 35.44ZM49.0438 45.52C49.1184 45.8187 49.1558 46.192 49.1558 46.64C49.1558 47.0693 49.1184 47.4427 49.0438 47.76H47.6438C47.5691 47.4427 47.5318 47.0693 47.5318 46.64C47.5318 46.192 47.5691 45.8187 47.6438 45.52H46.8038C46.7291 45.2027 46.6917 44.8293 46.6917 44.4C46.6917 43.952 46.7291 43.5787 46.8038 43.28C46.7291 42.9627 46.6917 42.5893 46.6917 42.16C46.6917 41.712 46.7291 41.3387 46.8038 41.04C46.7291 40.7227 46.6917 40.3493 46.6917 39.92C46.6917 39.472 46.7291 39.0987 46.8038 38.8H47.6438C47.5691 38.4827 47.5318 38.1093 47.5318 37.68C47.5318 37.232 47.5691 36.8587 47.6438 36.56H49.0438C49.1184 36.8587 49.1558 37.232 49.1558 37.68C49.1558 38.1093 49.1184 38.4827 49.0438 38.8C49.1184 39.0987 49.1558 39.472 49.1558 39.92C49.1558 40.3493 49.1184 40.7227 49.0438 41.04C49.1184 41.3387 49.1558 41.712 49.1558 42.16C49.1558 42.5893 49.1184 42.9627 49.0438 43.28C49.1184 43.5787 49.1558 43.952 49.1558 44.4C49.1558 44.8293 49.1184 45.2027 49.0438 45.52ZM54.0838 41.04C54.1584 41.3387 54.1958 41.712 54.1958 42.16C54.1958 42.5893 54.1584 42.9627 54.0838 43.28C54.1584 43.5787 54.1958 43.952 54.1958 44.4C54.1958 44.8293 54.1584 45.2027 54.0838 45.52H53.2438C53.3184 45.8187 53.3558 46.192 53.3558 46.64C53.3558 47.0693 53.3184 47.4427 53.2438 47.76H51.8438C51.7691 47.4427 51.7318 47.0693 51.7318 46.64C51.7318 46.192 51.7691 45.8187 51.8438 45.52C51.7691 45.2027 51.7318 44.8293 51.7318 44.4C51.7318 43.952 51.7691 43.5787 51.8438 43.28C51.7691 42.9627 51.7318 42.5893 51.7318 42.16C51.7318 41.712 51.7691 41.3387 51.8438 41.04C51.7691 40.7227 51.7318 40.3493 51.7318 39.92C51.7318 39.472 51.7691 39.0987 51.8438 38.8C51.7691 38.4827 51.7318 38.1093 51.7318 37.68C51.7318 37.232 51.7691 36.8587 51.8438 36.56H53.2438C53.3184 36.8587 53.3558 37.232 53.3558 37.68C53.3558 38.1093 53.3184 38.4827 53.2438 38.8H54.0838C54.1584 39.0987 54.1958 39.472 54.1958 39.92C54.1958 40.3493 54.1584 40.7227 54.0838 41.04ZM48.9318 48.88C48.9318 48.432 48.9691 48.0587 49.0438 47.76H51.8438C51.9184 48.0587 51.9558 48.432 51.9558 48.88C51.9558 49.3093 51.9184 49.6827 51.8438 50H49.0438C48.9691 49.6827 48.9318 49.3093 48.9318 48.88Z" fill="#EEEEEE"/>
<path d="M70.112 35.44C70.112 35.8693 70.0747 36.2427 70 36.56H67.2C67.1253 36.2427 67.088 35.8693 67.088 35.44C67.088 34.992 67.1253 34.6187 67.2 34.32H70C70.0747 34.6187 70.112 34.992 70.112 35.44ZM67.2 45.52C67.2747 45.8187 67.312 46.192 67.312 46.64C67.312 47.0693 67.2747 47.4427 67.2 47.76H65.8C65.7253 47.4427 65.688 47.0693 65.688 46.64C65.688 46.192 65.7253 45.8187 65.8 45.52H64.96C64.8853 45.2027 64.848 44.8293 64.848 44.4C64.848 43.952 64.8853 43.5787 64.96 43.28C64.8853 42.9627 64.848 42.5893 64.848 42.16C64.848 41.712 64.8853 41.3387 64.96 41.04C64.8853 40.7227 64.848 40.3493 64.848 39.92C64.848 39.472 64.8853 39.0987 64.96 38.8H65.8C65.7253 38.4827 65.688 38.1093 65.688 37.68C65.688 37.232 65.7253 36.8587 65.8 36.56H67.2C67.2747 36.8587 67.312 37.232 67.312 37.68C67.312 38.1093 67.2747 38.4827 67.2 38.8C67.2747 39.0987 67.312 39.472 67.312 39.92C67.312 40.3493 67.2747 40.7227 67.2 41.04C67.2747 41.3387 67.312 41.712 67.312 42.16C67.312 42.5893 67.2747 42.9627 67.2 43.28C67.2747 43.5787 67.312 43.952 67.312 44.4C67.312 44.8293 67.2747 45.2027 67.2 45.52ZM72.24 41.04C72.3147 41.3387 72.352 41.712 72.352 42.16C72.352 42.5893 72.3147 42.9627 72.24 43.28C72.3147 43.5787 72.352 43.952 72.352 44.4C72.352 44.8293 72.3147 45.2027 72.24 45.52H71.4C71.4747 45.8187 71.512 46.192 71.512 46.64C71.512 47.0693 71.4747 47.4427 71.4 47.76H70C69.9253 47.4427 69.888 47.0693 69.888 46.64C69.888 46.192 69.9253 45.8187 70 45.52C69.9253 45.2027 69.888 44.8293 69.888 44.4C69.888 43.952 69.9253 43.5787 70 43.28C69.9253 42.9627 69.888 42.5893 69.888 42.16C69.888 41.712 69.9253 41.3387 70 41.04C69.9253 40.7227 69.888 40.3493 69.888 39.92C69.888 39.472 69.9253 39.0987 70 38.8C69.9253 38.4827 69.888 38.1093 69.888 37.68C69.888 37.232 69.9253 36.8587 70 36.56H71.4C71.4747 36.8587 71.512 37.232 71.512 37.68C71.512 38.1093 71.4747 38.4827 71.4 38.8H72.24C72.3147 39.0987 72.352 39.472 72.352 39.92C72.352 40.3493 72.3147 40.7227 72.24 41.04ZM67.088 48.88C67.088 48.432 67.1253 48.0587 67.2 47.76H70C70.0747 48.0587 70.112 48.432 70.112 48.88C70.112 49.3093 70.0747 49.6827 70 50H67.2C67.1253 49.6827 67.088 49.3093 67.088 48.88ZM83.1709 47.76C83.2456 48.0587 83.2829 48.432 83.2829 48.88C83.2829 49.3093 83.2456 49.6827 83.1709 50H76.4509C76.3763 49.6827 76.3389 49.3093 76.3389 48.88C76.3389 48.432 76.3763 48.0587 76.4509 47.76H78.6909C78.6163 47.4427 78.5789 47.0693 78.5789 46.64C78.5789 46.192 78.6163 45.8187 78.6909 45.52C78.6163 45.2027 78.5789 44.8293 78.5789 44.4C78.5789 43.952 78.6163 43.5787 78.6909 43.28C78.6163 42.9627 78.5789 42.5893 78.5789 42.16C78.5789 41.712 78.6163 41.3387 78.6909 41.04C78.6163 40.7227 78.5789 40.3493 78.5789 39.92C78.5789 39.472 78.6163 39.0987 78.6909 38.8H77.0109C76.9363 38.4827 76.8989 38.1093 76.8989 37.68C76.8989 37.232 76.9363 36.8587 77.0109 36.56H78.6909C78.6163 36.2427 78.5789 35.8693 78.5789 35.44C78.5789 34.992 78.6163 34.6187 78.6909 34.32H80.9309C81.0056 34.6187 81.0429 34.992 81.0429 35.44C81.0429 35.8693 81.0056 36.2427 80.9309 36.56C81.0056 36.8587 81.0429 37.232 81.0429 37.68C81.0429 38.1093 81.0056 38.4827 80.9309 38.8C81.0056 39.0987 81.0429 39.472 81.0429 39.92C81.0429 40.3493 81.0056 40.7227 80.9309 41.04C81.0056 41.3387 81.0429 41.712 81.0429 42.16C81.0429 42.5893 81.0056 42.9627 80.9309 43.28C81.0056 43.5787 81.0429 43.952 81.0429 44.4C81.0429 44.8293 81.0056 45.2027 80.9309 45.52C81.0056 45.8187 81.0429 46.192 81.0429 46.64C81.0429 47.0693 81.0056 47.4427 80.9309 47.76H83.1709ZM92.5339 35.44C92.5339 35.8693 92.4965 36.2427 92.4219 36.56H89.6219C89.5472 36.2427 89.5099 35.8693 89.5099 35.44C89.5099 34.992 89.5472 34.6187 89.6219 34.32H92.4219C92.4965 34.6187 92.5339 34.992 92.5339 35.44ZM89.6219 45.52C89.6965 45.8187 89.7339 46.192 89.7339 46.64C89.7339 47.0693 89.6965 47.4427 89.6219 47.76H88.2219C88.1472 47.4427 88.1099 47.0693 88.1099 46.64C88.1099 46.192 88.1472 45.8187 88.2219 45.52H87.3819C87.3072 45.2027 87.2699 44.8293 87.2699 44.4C87.2699 43.952 87.3072 43.5787 87.3819 43.28C87.3072 42.9627 87.2699 42.5893 87.2699 42.16C87.2699 41.712 87.3072 41.3387 87.3819 41.04C87.3072 40.7227 87.2699 40.3493 87.2699 39.92C87.2699 39.472 87.3072 39.0987 87.3819 38.8H88.2219C88.1472 38.4827 88.1099 38.1093 88.1099 37.68C88.1099 37.232 88.1472 36.8587 88.2219 36.56H89.6219C89.6965 36.8587 89.7339 37.232 89.7339 37.68C89.7339 38.1093 89.6965 38.4827 89.6219 38.8C89.6965 39.0987 89.7339 39.472 89.7339 39.92C89.7339 40.3493 89.6965 40.7227 89.6219 41.04C89.6965 41.3387 89.7339 41.712 89.7339 42.16C89.7339 42.5893 89.6965 42.9627 89.6219 43.28C89.6965 43.5787 89.7339 43.952 89.7339 44.4C89.7339 44.8293 89.6965 45.2027 89.6219 45.52ZM94.6619 41.04C94.7365 41.3387 94.7739 41.712 94.7739 42.16C94.7739 42.5893 94.7365 42.9627 94.6619 43.28C94.7365 43.5787 94.7739 43.952 94.7739 44.4C94.7739 44.8293 94.7365 45.2027 94.6619 45.52H93.8219C93.8965 45.8187 93.9339 46.192 93.9339 46.64C93.9339 47.0693 93.8965 47.4427 93.8219 47.76H92.4219C92.3472 47.4427 92.3099 47.0693 92.3099 46.64C92.3099 46.192 92.3472 45.8187 92.4219 45.52C92.3472 45.2027 92.3099 44.8293 92.3099 44.4C92.3099 43.952 92.3472 43.5787 92.4219 43.28C92.3472 42.9627 92.3099 42.5893 92.3099 42.16C92.3099 41.712 92.3472 41.3387 92.4219 41.04C92.3472 40.7227 92.3099 40.3493 92.3099 39.92C92.3099 39.472 92.3472 39.0987 92.4219 38.8C92.3472 38.4827 92.3099 38.1093 92.3099 37.68C92.3099 37.232 92.3472 36.8587 92.4219 36.56H93.8219C93.8965 36.8587 93.9339 37.232 93.9339 37.68C93.9339 38.1093 93.8965 38.4827 93.8219 38.8H94.6619C94.7365 39.0987 94.7739 39.472 94.7739 39.92C94.7739 40.3493 94.7365 40.7227 94.6619 41.04ZM89.5099 48.88C89.5099 48.432 89.5472 48.0587 89.6219 47.76H92.4219C92.4965 48.0587 92.5339 48.432 92.5339 48.88C92.5339 49.3093 92.4965 49.6827 92.4219 50H89.6219C89.5472 49.6827 89.5099 49.3093 89.5099 48.88ZM105.593 47.76C105.667 48.0587 105.705 48.432 105.705 48.88C105.705 49.3093 105.667 49.6827 105.593 50H98.8728C98.7981 49.6827 98.7608 49.3093 98.7608 48.88C98.7608 48.432 98.7981 48.0587 98.8728 47.76H101.113C101.038 47.4427 101.001 47.0693 101.001 46.64C101.001 46.192 101.038 45.8187 101.113 45.52C101.038 45.2027 101.001 44.8293 101.001 44.4C101.001 43.952 101.038 43.5787 101.113 43.28C101.038 42.9627 101.001 42.5893 101.001 42.16C101.001 41.712 101.038 41.3387 101.113 41.04C101.038 40.7227 101.001 40.3493 101.001 39.92C101.001 39.472 101.038 39.0987 101.113 38.8H99.4328C99.3581 38.4827 99.3208 38.1093 99.3208 37.68C99.3208 37.232 99.3581 36.8587 99.4328 36.56H101.113C101.038 36.2427 101.001 35.8693 101.001 35.44C101.001 34.992 101.038 34.6187 101.113 34.32H103.353C103.427 34.6187 103.465 34.992 103.465 35.44C103.465 35.8693 103.427 36.2427 103.353 36.56C103.427 36.8587 103.465 37.232 103.465 37.68C103.465 38.1093 103.427 38.4827 103.353 38.8C103.427 39.0987 103.465 39.472 103.465 39.92C103.465 40.3493 103.427 40.7227 103.353 41.04C103.427 41.3387 103.465 41.712 103.465 42.16C103.465 42.5893 103.427 42.9627 103.353 43.28C103.427 43.5787 103.465 43.952 103.465 44.4C103.465 44.8293 103.427 45.2027 103.353 45.52C103.427 45.8187 103.465 46.192 103.465 46.64C103.465 47.0693 103.427 47.4427 103.353 47.76H105.593ZM70.112 63.44C70.112 63.8693 70.0747 64.2427 70 64.56H67.2C67.1253 64.2427 67.088 63.8693 67.088 63.44C67.088 62.992 67.1253 62.6187 67.2 62.32H70C70.0747 62.6187 70.112 62.992 70.112 63.44ZM67.2 73.52C67.2747 73.8187 67.312 74.192 67.312 74.64C67.312 75.0693 67.2747 75.4427 67.2 75.76H65.8C65.7253 75.4427 65.688 75.0693 65.688 74.64C65.688 74.192 65.7253 73.8187 65.8 73.52H64.96C64.8853 73.2027 64.848 72.8293 64.848 72.4C64.848 71.952 64.8853 71.5787 64.96 71.28C64.8853 70.9627 64.848 70.5893 64.848 70.16C64.848 69.712 64.8853 69.3387 64.96 69.04C64.8853 68.7227 64.848 68.3493 64.848 67.92C64.848 67.472 64.8853 67.0987 64.96 66.8H65.8C65.7253 66.4827 65.688 66.1093 65.688 65.68C65.688 65.232 65.7253 64.8587 65.8 64.56H67.2C67.2747 64.8587 67.312 65.232 67.312 65.68C67.312 66.1093 67.2747 66.4827 67.2 66.8C67.2747 67.0987 67.312 67.472 67.312 67.92C67.312 68.3493 67.2747 68.7227 67.2 69.04C67.2747 69.3387 67.312 69.712 67.312 70.16C67.312 70.5893 67.2747 70.9627 67.2 71.28C67.2747 71.5787 67.312 71.952 67.312 72.4C67.312 72.8293 67.2747 73.2027 67.2 73.52ZM72.24 69.04C72.3147 69.3387 72.352 69.712 72.352 70.16C72.352 70.5893 72.3147 70.9627 72.24 71.28C72.3147 71.5787 72.352 71.952 72.352 72.4C72.352 72.8293 72.3147 73.2027 72.24 73.52H71.4C71.4747 73.8187 71.512 74.192 71.512 74.64C71.512 75.0693 71.4747 75.4427 71.4 75.76H70C69.9253 75.4427 69.888 75.0693 69.888 74.64C69.888 74.192 69.9253 73.8187 70 73.52C69.9253 73.2027 69.888 72.8293 69.888 72.4C69.888 71.952 69.9253 71.5787 70 71.28C69.9253 70.9627 69.888 70.5893 69.888 70.16C69.888 69.712 69.9253 69.3387 70 69.04C69.9253 68.7227 69.888 68.3493 69.888 67.92C69.888 67.472 69.9253 67.0987 70 66.8C69.9253 66.4827 69.888 66.1093 69.888 65.68C69.888 65.232 69.9253 64.8587 70 64.56H71.4C71.4747 64.8587 71.512 65.232 71.512 65.68C71.512 66.1093 71.4747 66.4827 71.4 66.8H72.24C72.3147 67.0987 72.352 67.472 72.352 67.92C72.352 68.3493 72.3147 68.7227 72.24 69.04ZM67.088 76.88C67.088 76.432 67.1253 76.0587 67.2 75.76H70C70.0747 76.0587 70.112 76.432 70.112 76.88C70.112 77.3093 70.0747 77.6827 70 78H67.2C67.1253 77.6827 67.088 77.3093 67.088 76.88ZM81.3229 63.44C81.3229 63.8693 81.2856 64.2427 81.2109 64.56H78.4109C78.3363 64.2427 78.2989 63.8693 78.2989 63.44C78.2989 62.992 78.3363 62.6187 78.4109 62.32H81.2109C81.2856 62.6187 81.3229 62.992 81.3229 63.44ZM78.4109 73.52C78.4856 73.8187 78.5229 74.192 78.5229 74.64C78.5229 75.0693 78.4856 75.4427 78.4109 75.76H77.0109C76.9363 75.4427 76.8989 75.0693 76.8989 74.64C76.8989 74.192 76.9363 73.8187 77.0109 73.52H76.1709C76.0963 73.2027 76.0589 72.8293 76.0589 72.4C76.0589 71.952 76.0963 71.5787 76.1709 71.28C76.0963 70.9627 76.0589 70.5893 76.0589 70.16C76.0589 69.712 76.0963 69.3387 76.1709 69.04C76.0963 68.7227 76.0589 68.3493 76.0589 67.92C76.0589 67.472 76.0963 67.0987 76.1709 66.8H77.0109C76.9363 66.4827 76.8989 66.1093 76.8989 65.68C76.8989 65.232 76.9363 64.8587 77.0109 64.56H78.4109C78.4856 64.8587 78.5229 65.232 78.5229 65.68C78.5229 66.1093 78.4856 66.4827 78.4109 66.8C78.4856 67.0987 78.5229 67.472 78.5229 67.92C78.5229 68.3493 78.4856 68.7227 78.4109 69.04C78.4856 69.3387 78.5229 69.712 78.5229 70.16C78.5229 70.5893 78.4856 70.9627 78.4109 71.28C78.4856 71.5787 78.5229 71.952 78.5229 72.4C78.5229 72.8293 78.4856 73.2027 78.4109 73.52ZM83.4509 69.04C83.5256 69.3387 83.5629 69.712 83.5629 70.16C83.5629 70.5893 83.5256 70.9627 83.4509 71.28C83.5256 71.5787 83.5629 71.952 83.5629 72.4C83.5629 72.8293 83.5256 73.2027 83.4509 73.52H82.6109C82.6856 73.8187 82.7229 74.192 82.7229 74.64C82.7229 75.0693 82.6856 75.4427 82.6109 75.76H81.2109C81.1363 75.4427 81.0989 75.0693 81.0989 74.64C81.0989 74.192 81.1363 73.8187 81.2109 73.52C81.1363 73.2027 81.0989 72.8293 81.0989 72.4C81.0989 71.952 81.1363 71.5787 81.2109 71.28C81.1363 70.9627 81.0989 70.5893 81.0989 70.16C81.0989 69.712 81.1363 69.3387 81.2109 69.04C81.1363 68.7227 81.0989 68.3493 81.0989 67.92C81.0989 67.472 81.1363 67.0987 81.2109 66.8C81.1363 66.4827 81.0989 66.1093 81.0989 65.68C81.0989 65.232 81.1363 64.8587 81.2109 64.56H82.6109C82.6856 64.8587 82.7229 65.232 82.7229 65.68C82.7229 66.1093 82.6856 66.4827 82.6109 66.8H83.4509C83.5256 67.0987 83.5629 67.472 83.5629 67.92C83.5629 68.3493 83.5256 68.7227 83.4509 69.04ZM78.2989 76.88C78.2989 76.432 78.3363 76.0587 78.4109 75.76H81.2109C81.2856 76.0587 81.3229 76.432 81.3229 76.88C81.3229 77.3093 81.2856 77.6827 81.2109 78H78.4109C78.3363 77.6827 78.2989 77.3093 78.2989 76.88ZM92.5339 63.44C92.5339 63.8693 92.4965 64.2427 92.4219 64.56H89.6219C89.5472 64.2427 89.5099 63.8693 89.5099 63.44C89.5099 62.992 89.5472 62.6187 89.6219 62.32H92.4219C92.4965 62.6187 92.5339 62.992 92.5339 63.44ZM89.6219 73.52C89.6965 73.8187 89.7339 74.192 89.7339 74.64C89.7339 75.0693 89.6965 75.4427 89.6219 75.76H88.2219C88.1472 75.4427 88.1099 75.0693 88.1099 74.64C88.1099 74.192 88.1472 73.8187 88.2219 73.52H87.3819C87.3072 73.2027 87.2699 72.8293 87.2699 72.4C87.2699 71.952 87.3072 71.5787 87.3819 71.28C87.3072 70.9627 87.2699 70.5893 87.2699 70.16C87.2699 69.712 87.3072 69.3387 87.3819 69.04C87.3072 68.7227 87.2699 68.3493 87.2699 67.92C87.2699 67.472 87.3072 67.0987 87.3819 66.8H88.2219C88.1472 66.4827 88.1099 66.1093 88.1099 65.68C88.1099 65.232 88.1472 64.8587 88.2219 64.56H89.6219C89.6965 64.8587 89.7339 65.232 89.7339 65.68C89.7339 66.1093 89.6965 66.4827 89.6219 66.8C89.6965 67.0987 89.7339 67.472 89.7339 67.92C89.7339 68.3493 89.6965 68.7227 89.6219 69.04C89.6965 69.3387 89.7339 69.712 89.7339 70.16C89.7339 70.5893 89.6965 70.9627 89.6219 71.28C89.6965 71.5787 89.7339 71.952 89.7339 72.4C89.7339 72.8293 89.6965 73.2027 89.6219 73.52ZM94.6619 69.04C94.7365 69.3387 94.7739 69.712 94.7739 70.16C94.7739 70.5893 94.7365 70.9627 94.6619 71.28C94.7365 71.5787 94.7739 71.952 94.7739 72.4C94.7739 72.8293 94.7365 73.2027 94.6619 73.52H93.8219C93.8965 73.8187 93.9339 74.192 93.9339 74.64C93.9339 75.0693 93.8965 75.4427 93.8219 75.76H92.4219C92.3472 75.4427 92.3099 75.0693 92.3099 74.64C92.3099 74.192 92.3472 73.8187 92.4219 73.52C92.3472 73.2027 92.3099 72.8293 92.3099 72.4C92.3099 71.952 92.3472 71.5787 92.4219 71.28C92.3472 70.9627 92.3099 70.5893 92.3099 70.16C92.3099 69.712 92.3472 69.3387 92.4219 69.04C92.3472 68.7227 92.3099 68.3493 92.3099 67.92C92.3099 67.472 92.3472 67.0987 92.4219 66.8C92.3472 66.4827 92.3099 66.1093 92.3099 65.68C92.3099 65.232 92.3472 64.8587 92.4219 64.56H93.8219C93.8965 64.8587 93.9339 65.232 93.9339 65.68C93.9339 66.1093 93.8965 66.4827 93.8219 66.8H94.6619C94.7365 67.0987 94.7739 67.472 94.7739 67.92C94.7739 68.3493 94.7365 68.7227 94.6619 69.04ZM89.5099 76.88C89.5099 76.432 89.5472 76.0587 89.6219 75.76H92.4219C92.4965 76.0587 92.5339 76.432 92.5339 76.88C92.5339 77.3093 92.4965 77.6827 92.4219 78H89.6219C89.5472 77.6827 89.5099 77.3093 89.5099 76.88ZM103.745 63.44C103.745 63.8693 103.707 64.2427 103.633 64.56H100.833C100.758 64.2427 100.721 63.8693 100.721 63.44C100.721 62.992 100.758 62.6187 100.833 62.32H103.633C103.707 62.6187 103.745 62.992 103.745 63.44ZM100.833 73.52C100.907 73.8187 100.945 74.192 100.945 74.64C100.945 75.0693 100.907 75.4427 100.833 75.76H99.4328C99.3581 75.4427 99.3208 75.0693 99.3208 74.64C99.3208 74.192 99.3581 73.8187 99.4328 73.52H98.5928C98.5181 73.2027 98.4808 72.8293 98.4808 72.4C98.4808 71.952 98.5181 71.5787 98.5928 71.28C98.5181 70.9627 98.4808 70.5893 98.4808 70.16C98.4808 69.712 98.5181 69.3387 98.5928 69.04C98.5181 68.7227 98.4808 68.3493 98.4808 67.92C98.4808 67.472 98.5181 67.0987 98.5928 66.8H99.4328C99.3581 66.4827 99.3208 66.1093 99.3208 65.68C99.3208 65.232 99.3581 64.8587 99.4328 64.56H100.833C100.907 64.8587 100.945 65.232 100.945 65.68C100.945 66.1093 100.907 66.4827 100.833 66.8C100.907 67.0987 100.945 67.472 100.945 67.92C100.945 68.3493 100.907 68.7227 100.833 69.04C100.907 69.3387 100.945 69.712 100.945 70.16C100.945 70.5893 100.907 70.9627 100.833 71.28C100.907 71.5787 100.945 71.952 100.945 72.4C100.945 72.8293 100.907 73.2027 100.833 73.52ZM105.873 69.04C105.947 69.3387 105.985 69.712 105.985 70.16C105.985 70.5893 105.947 70.9627 105.873 71.28C105.947 71.5787 105.985 71.952 105.985 72.4C105.985 72.8293 105.947 73.2027 105.873 73.52H105.033C105.107 73.8187 105.145 74.192 105.145 74.64C105.145 75.0693 105.107 75.4427 105.033 75.76H103.633C103.558 75.4427 103.521 75.0693 103.521 74.64C103.521 74.192 103.558 73.8187 103.633 73.52C103.558 73.2027 103.521 72.8293 103.521 72.4C103.521 71.952 103.558 71.5787 103.633 71.28C103.558 70.9627 103.521 70.5893 103.521 70.16C103.521 69.712 103.558 69.3387 103.633 69.04C103.558 68.7227 103.521 68.3493 103.521 67.92C103.521 67.472 103.558 67.0987 103.633 66.8C103.558 66.4827 103.521 66.1093 103.521 65.68C103.521 65.232 103.558 64.8587 103.633 64.56H105.033C105.107 64.8587 105.145 65.232 105.145 65.68C105.145 66.1093 105.107 66.4827 105.033 66.8H105.873C105.947 67.0987 105.985 67.472 105.985 67.92C105.985 68.3493 105.947 68.7227 105.873 69.04ZM100.721 76.88C100.721 76.432 100.758 76.0587 100.833 75.76H103.633C103.707 76.0587 103.745 76.432 103.745 76.88C103.745 77.3093 103.707 77.6827 103.633 78H100.833C100.758 77.6827 100.721 77.3093 100.721 76.88Z" fill="#EEEEEE"/>
<path d="M116.776 70.16C116.776 70.5893 116.738 70.9627 116.664 71.28H115.264C115.338 71.5787 115.376 71.952 115.376 72.4C115.376 72.8293 115.338 73.2027 115.264 73.52H113.864C113.938 73.8187 113.976 74.192 113.976 74.64C113.976 75.0693 113.938 75.4427 113.864 75.76H112.464C112.538 76.0587 112.576 76.432 112.576 76.88C112.576 77.3093 112.538 77.6827 112.464 78H110.224C110.149 77.6827 110.112 77.3093 110.112 76.88C110.112 76.432 110.149 76.0587 110.224 75.76H111.624C111.549 75.4427 111.512 75.0693 111.512 74.64C111.512 74.192 111.549 73.8187 111.624 73.52H113.024C112.949 73.2027 112.912 72.8293 112.912 72.4C112.912 71.952 112.949 71.5787 113.024 71.28H114.424C114.349 70.9627 114.312 70.5893 114.312 70.16C114.312 69.712 114.349 69.3387 114.424 69.04H113.024C112.949 68.7227 112.912 68.3493 112.912 67.92C112.912 67.472 112.949 67.0987 113.024 66.8H111.624C111.549 66.4827 111.512 66.1093 111.512 65.68C111.512 65.232 111.549 64.8587 111.624 64.56H110.224C110.149 64.2427 110.112 63.8693 110.112 63.44C110.112 62.992 110.149 62.6187 110.224 62.32H112.464C112.538 62.6187 112.576 62.992 112.576 63.44C112.576 63.8693 112.538 64.2427 112.464 64.56H113.864C113.938 64.8587 113.976 65.232 113.976 65.68C113.976 66.1093 113.938 66.4827 113.864 66.8H115.264C115.338 67.0987 115.376 67.472 115.376 67.92C115.376 68.3493 115.338 68.7227 115.264 69.04H116.664C116.738 69.3387 116.776 69.712 116.776 70.16Z" fill="#7CAAAD"/>
</svg>
