<svg width="73" height="58" viewBox="0 0 73 58" fill="none" xmlns="http://www.w3.org/2000/svg">
<path d="M5.67 12.56C5.718 12.752 5.742 12.992 5.742 13.28C5.742 13.556 5.718 13.796 5.67 14H4.23C4.182 13.796 4.158 13.556 4.158 13.28C4.158 12.992 4.182 12.752 4.23 12.56H3.33C3.282 12.356 3.258 12.116 3.258 11.84C3.258 11.552 3.282 11.312 3.33 11.12H2.43C2.382 10.916 2.358 10.676 2.358 10.4C2.358 10.112 2.382 9.872 2.43 9.68H1.53C1.482 9.476 1.458 9.236 1.458 8.96C1.458 8.672 1.482 8.432 1.53 8.24H2.43C2.382 8.036 2.358 7.796 2.358 7.52C2.358 7.232 2.382 6.992 2.43 6.8H3.33C3.282 6.596 3.258 6.356 3.258 6.08C3.258 5.792 3.282 5.552 3.33 5.36H4.23C4.182 5.156 4.158 4.916 4.158 4.64C4.158 4.352 4.182 4.112 4.23 3.92H5.67C5.718 4.112 5.742 4.352 5.742 4.64C5.742 4.916 5.718 5.156 5.67 5.36H4.77C4.818 5.552 4.842 5.792 4.842 6.08C4.842 6.356 4.818 6.596 4.77 6.8H3.87C3.918 6.992 3.942 7.232 3.942 7.52C3.942 7.796 3.918 8.036 3.87 8.24H2.97C3.018 8.432 3.042 8.672 3.042 8.96C3.042 9.236 3.018 9.476 2.97 9.68H3.87C3.918 9.872 3.942 10.112 3.942 10.4C3.942 10.676 3.918 10.916 3.87 11.12H4.77C4.818 11.312 4.842 11.552 4.842 11.84C4.842 12.116 4.818 12.356 4.77 12.56H5.67Z" fill="#7CAAAD"/>
<path d="M11.779 4.64C11.779 4.916 11.755 5.156 11.707 5.36H9.90703C9.85903 5.156 9.83503 4.916 9.83503 4.64C9.83503 4.352 9.85903 4.112 9.90703 3.92H11.707C11.755 4.112 11.779 4.352 11.779 4.64ZM9.90703 11.12C9.95503 11.312 9.97903 11.552 9.97903 11.84C9.97903 12.116 9.95503 12.356 9.90703 12.56H9.00703C8.95903 12.356 8.93503 12.116 8.93503 11.84C8.93503 11.552 8.95903 11.312 9.00703 11.12H8.46703C8.41903 10.916 8.39503 10.676 8.39503 10.4C8.39503 10.112 8.41903 9.872 8.46703 9.68C8.41903 9.476 8.39503 9.236 8.39503 8.96C8.39503 8.672 8.41903 8.432 8.46703 8.24C8.41903 8.036 8.39503 7.796 8.39503 7.52C8.39503 7.232 8.41903 6.992 8.46703 6.8H9.00703C8.95903 6.596 8.93503 6.356 8.93503 6.08C8.93503 5.792 8.95903 5.552 9.00703 5.36H9.90703C9.95503 5.552 9.97903 5.792 9.97903 6.08C9.97903 6.356 9.95503 6.596 9.90703 6.8C9.95503 6.992 9.97903 7.232 9.97903 7.52C9.97903 7.796 9.95503 8.036 9.90703 8.24C9.95503 8.432 9.97903 8.672 9.97903 8.96C9.97903 9.236 9.95503 9.476 9.90703 9.68C9.95503 9.872 9.97903 10.112 9.97903 10.4C9.97903 10.676 9.95503 10.916 9.90703 11.12ZM13.147 8.24C13.195 8.432 13.219 8.672 13.219 8.96C13.219 9.236 13.195 9.476 13.147 9.68C13.195 9.872 13.219 10.112 13.219 10.4C13.219 10.676 13.195 10.916 13.147 11.12H12.607C12.655 11.312 12.679 11.552 12.679 11.84C12.679 12.116 12.655 12.356 12.607 12.56H11.707C11.659 12.356 11.635 12.116 11.635 11.84C11.635 11.552 11.659 11.312 11.707 11.12C11.659 10.916 11.635 10.676 11.635 10.4C11.635 10.112 11.659 9.872 11.707 9.68C11.659 9.476 11.635 9.236 11.635 8.96C11.635 8.672 11.659 8.432 11.707 8.24C11.659 8.036 11.635 7.796 11.635 7.52C11.635 7.232 11.659 6.992 11.707 6.8C11.659 6.596 11.635 6.356 11.635 6.08C11.635 5.792 11.659 5.552 11.707 5.36H12.607C12.655 5.552 12.679 5.792 12.679 6.08C12.679 6.356 12.655 6.596 12.607 6.8H13.147C13.195 6.992 13.219 7.232 13.219 7.52C13.219 7.796 13.195 8.036 13.147 8.24ZM9.83503 13.28C9.83503 12.992 9.85903 12.752 9.90703 12.56H11.707C11.755 12.752 11.779 12.992 11.779 13.28C11.779 13.556 11.755 13.796 11.707 14H9.90703C9.85903 13.796 9.83503 13.556 9.83503 13.28ZM20.1741 12.56C20.2221 12.752 20.2461 12.992 20.2461 13.28C20.2461 13.556 20.2221 13.796 20.1741 14H15.8541C15.8061 13.796 15.7821 13.556 15.7821 13.28C15.7821 12.992 15.8061 12.752 15.8541 12.56H17.2941C17.2461 12.356 17.2221 12.116 17.2221 11.84C17.2221 11.552 17.2461 11.312 17.2941 11.12C17.2461 10.916 17.2221 10.676 17.2221 10.4C17.2221 10.112 17.2461 9.872 17.2941 9.68C17.2461 9.476 17.2221 9.236 17.2221 8.96C17.2221 8.672 17.2461 8.432 17.2941 8.24C17.2461 8.036 17.2221 7.796 17.2221 7.52C17.2221 7.232 17.2461 6.992 17.2941 6.8H16.2141C16.1661 6.596 16.1421 6.356 16.1421 6.08C16.1421 5.792 16.1661 5.552 16.2141 5.36H17.2941C17.2461 5.156 17.2221 4.916 17.2221 4.64C17.2221 4.352 17.2461 4.112 17.2941 3.92H18.7341C18.7821 4.112 18.8061 4.352 18.8061 4.64C18.8061 4.916 18.7821 5.156 18.7341 5.36C18.7821 5.552 18.8061 5.792 18.8061 6.08C18.8061 6.356 18.7821 6.596 18.7341 6.8C18.7821 6.992 18.8061 7.232 18.8061 7.52C18.8061 7.796 18.7821 8.036 18.7341 8.24C18.7821 8.432 18.8061 8.672 18.8061 8.96C18.8061 9.236 18.7821 9.476 18.7341 9.68C18.7821 9.872 18.8061 10.112 18.8061 10.4C18.8061 10.676 18.7821 10.916 18.7341 11.12C18.7821 11.312 18.8061 11.552 18.8061 11.84C18.8061 12.116 18.7821 12.356 18.7341 12.56H20.1741ZM26.1931 4.64C26.1931 4.916 26.1691 5.156 26.1211 5.36H24.3211C24.2731 5.156 24.2491 4.916 24.2491 4.64C24.2491 4.352 24.2731 4.112 24.3211 3.92H26.1211C26.1691 4.112 26.1931 4.352 26.1931 4.64ZM24.3211 11.12C24.3691 11.312 24.3931 11.552 24.3931 11.84C24.3931 12.116 24.3691 12.356 24.3211 12.56H23.4211C23.3731 12.356 23.3491 12.116 23.3491 11.84C23.3491 11.552 23.3731 11.312 23.4211 11.12H22.8811C22.8331 10.916 22.8091 10.676 22.8091 10.4C22.8091 10.112 22.8331 9.872 22.8811 9.68C22.8331 9.476 22.8091 9.236 22.8091 8.96C22.8091 8.672 22.8331 8.432 22.8811 8.24C22.8331 8.036 22.8091 7.796 22.8091 7.52C22.8091 7.232 22.8331 6.992 22.8811 6.8H23.4211C23.3731 6.596 23.3491 6.356 23.3491 6.08C23.3491 5.792 23.3731 5.552 23.4211 5.36H24.3211C24.3691 5.552 24.3931 5.792 24.3931 6.08C24.3931 6.356 24.3691 6.596 24.3211 6.8C24.3691 6.992 24.3931 7.232 24.3931 7.52C24.3931 7.796 24.3691 8.036 24.3211 8.24C24.3691 8.432 24.3931 8.672 24.3931 8.96C24.3931 9.236 24.3691 9.476 24.3211 9.68C24.3691 9.872 24.3931 10.112 24.3931 10.4C24.3931 10.676 24.3691 10.916 24.3211 11.12ZM27.5611 8.24C27.6091 8.432 27.6331 8.672 27.6331 8.96C27.6331 9.236 27.6091 9.476 27.5611 9.68C27.6091 9.872 27.6331 10.112 27.6331 10.4C27.6331 10.676 27.6091 10.916 27.5611 11.12H27.0211C27.0691 11.312 27.0931 11.552 27.0931 11.84C27.0931 12.116 27.0691 12.356 27.0211 12.56H26.1211C26.0731 12.356 26.0491 12.116 26.0491 11.84C26.0491 11.552 26.0731 11.312 26.1211 11.12C26.0731 10.916 26.0491 10.676 26.0491 10.4C26.0491 10.112 26.0731 9.872 26.1211 9.68C26.0731 9.476 26.0491 9.236 26.0491 8.96C26.0491 8.672 26.0731 8.432 26.1211 8.24C26.0731 8.036 26.0491 7.796 26.0491 7.52C26.0491 7.232 26.0731 6.992 26.1211 6.8C26.0731 6.596 26.0491 6.356 26.0491 6.08C26.0491 5.792 26.0731 5.552 26.1211 5.36H27.0211C27.0691 5.552 27.0931 5.792 27.0931 6.08C27.0931 6.356 27.0691 6.596 27.0211 6.8H27.5611C27.6091 6.992 27.6331 7.232 27.6331 7.52C27.6331 7.796 27.6091 8.036 27.5611 8.24ZM24.2491 13.28C24.2491 12.992 24.2731 12.752 24.3211 12.56H26.1211C26.1691 12.752 26.1931 12.992 26.1931 13.28C26.1931 13.556 26.1691 13.796 26.1211 14H24.3211C24.2731 13.796 24.2491 13.556 24.2491 13.28ZM33.4001 4.64C33.4001 4.916 33.3761 5.156 33.3281 5.36H31.5281C31.4801 5.156 31.4561 4.916 31.4561 4.64C31.4561 4.352 31.4801 4.112 31.5281 3.92H33.3281C33.3761 4.112 33.4001 4.352 33.4001 4.64ZM31.5281 11.12C31.5761 11.312 31.6001 11.552 31.6001 11.84C31.6001 12.116 31.5761 12.356 31.5281 12.56H30.6281C30.5801 12.356 30.5561 12.116 30.5561 11.84C30.5561 11.552 30.5801 11.312 30.6281 11.12H30.0881C30.0401 10.916 30.0161 10.676 30.0161 10.4C30.0161 10.112 30.0401 9.872 30.0881 9.68C30.0401 9.476 30.0161 9.236 30.0161 8.96C30.0161 8.672 30.0401 8.432 30.0881 8.24C30.0401 8.036 30.0161 7.796 30.0161 7.52C30.0161 7.232 30.0401 6.992 30.0881 6.8H30.6281C30.5801 6.596 30.5561 6.356 30.5561 6.08C30.5561 5.792 30.5801 5.552 30.6281 5.36H31.5281C31.5761 5.552 31.6001 5.792 31.6001 6.08C31.6001 6.356 31.5761 6.596 31.5281 6.8C31.5761 6.992 31.6001 7.232 31.6001 7.52C31.6001 7.796 31.5761 8.036 31.5281 8.24C31.5761 8.432 31.6001 8.672 31.6001 8.96C31.6001 9.236 31.5761 9.476 31.5281 9.68C31.5761 9.872 31.6001 10.112 31.6001 10.4C31.6001 10.676 31.5761 10.916 31.5281 11.12ZM34.7681 8.24C34.8161 8.432 34.8401 8.672 34.8401 8.96C34.8401 9.236 34.8161 9.476 34.7681 9.68C34.8161 9.872 34.8401 10.112 34.8401 10.4C34.8401 10.676 34.8161 10.916 34.7681 11.12H34.2281C34.2761 11.312 34.3001 11.552 34.3001 11.84C34.3001 12.116 34.2761 12.356 34.2281 12.56H33.3281C33.2801 12.356 33.2561 12.116 33.2561 11.84C33.2561 11.552 33.2801 11.312 33.3281 11.12C33.2801 10.916 33.2561 10.676 33.2561 10.4C33.2561 10.112 33.2801 9.872 33.3281 9.68C33.2801 9.476 33.2561 9.236 33.2561 8.96C33.2561 8.672 33.2801 8.432 33.3281 8.24C33.2801 8.036 33.2561 7.796 33.2561 7.52C33.2561 7.232 33.2801 6.992 33.3281 6.8C33.2801 6.596 33.2561 6.356 33.2561 6.08C33.2561 5.792 33.2801 5.552 33.3281 5.36H34.2281C34.2761 5.552 34.3001 5.792 34.3001 6.08C34.3001 6.356 34.2761 6.596 34.2281 6.8H34.7681C34.8161 6.992 34.8401 7.232 34.8401 7.52C34.8401 7.796 34.8161 8.036 34.7681 8.24ZM31.4561 13.28C31.4561 12.992 31.4801 12.752 31.5281 12.56H33.3281C33.3761 12.752 33.4001 12.992 33.4001 13.28C33.4001 13.556 33.3761 13.796 33.3281 14H31.5281C31.4801 13.796 31.4561 13.556 31.4561 13.28ZM4.572 22.64C4.572 22.916 4.548 23.156 4.5 23.36H2.7C2.652 23.156 2.628 22.916 2.628 22.64C2.628 22.352 2.652 22.112 2.7 21.92H4.5C4.548 22.112 4.572 22.352 4.572 22.64ZM2.7 29.12C2.748 29.312 2.772 29.552 2.772 29.84C2.772 30.116 2.748 30.356 2.7 30.56H1.8C1.752 30.356 1.728 30.116 1.728 29.84C1.728 29.552 1.752 29.312 1.8 29.12H1.26C1.212 28.916 1.188 28.676 1.188 28.4C1.188 28.112 1.212 27.872 1.26 27.68C1.212 27.476 1.188 27.236 1.188 26.96C1.188 26.672 1.212 26.432 1.26 26.24C1.212 26.036 1.188 25.796 1.188 25.52C1.188 25.232 1.212 24.992 1.26 24.8H1.8C1.752 24.596 1.728 24.356 1.728 24.08C1.728 23.792 1.752 23.552 1.8 23.36H2.7C2.748 23.552 2.772 23.792 2.772 24.08C2.772 24.356 2.748 24.596 2.7 24.8C2.748 24.992 2.772 25.232 2.772 25.52C2.772 25.796 2.748 26.036 2.7 26.24C2.748 26.432 2.772 26.672 2.772 26.96C2.772 27.236 2.748 27.476 2.7 27.68C2.748 27.872 2.772 28.112 2.772 28.4C2.772 28.676 2.748 28.916 2.7 29.12ZM5.94 26.24C5.988 26.432 6.012 26.672 6.012 26.96C6.012 27.236 5.988 27.476 5.94 27.68C5.988 27.872 6.012 28.112 6.012 28.4C6.012 28.676 5.988 28.916 5.94 29.12H5.4C5.448 29.312 5.472 29.552 5.472 29.84C5.472 30.116 5.448 30.356 5.4 30.56H4.5C4.452 30.356 4.428 30.116 4.428 29.84C4.428 29.552 4.452 29.312 4.5 29.12C4.452 28.916 4.428 28.676 4.428 28.4C4.428 28.112 4.452 27.872 4.5 27.68C4.452 27.476 4.428 27.236 4.428 26.96C4.428 26.672 4.452 26.432 4.5 26.24C4.452 26.036 4.428 25.796 4.428 25.52C4.428 25.232 4.452 24.992 4.5 24.8C4.452 24.596 4.428 24.356 4.428 24.08C4.428 23.792 4.452 23.552 4.5 23.36H5.4C5.448 23.552 5.472 23.792 5.472 24.08C5.472 24.356 5.448 24.596 5.4 24.8H5.94C5.988 24.992 6.012 25.232 6.012 25.52C6.012 25.796 5.988 26.036 5.94 26.24ZM2.628 31.28C2.628 30.992 2.652 30.752 2.7 30.56H4.5C4.548 30.752 4.572 30.992 4.572 31.28C4.572 31.556 4.548 31.796 4.5 32H2.7C2.652 31.796 2.628 31.556 2.628 31.28ZM12.967 30.56C13.015 30.752 13.039 30.992 13.039 31.28C13.039 31.556 13.015 31.796 12.967 32H8.64703C8.59903 31.796 8.57503 31.556 8.57503 31.28C8.57503 30.992 8.59903 30.752 8.64703 30.56H10.087C10.039 30.356 10.015 30.116 10.015 29.84C10.015 29.552 10.039 29.312 10.087 29.12C10.039 28.916 10.015 28.676 10.015 28.4C10.015 28.112 10.039 27.872 10.087 27.68C10.039 27.476 10.015 27.236 10.015 26.96C10.015 26.672 10.039 26.432 10.087 26.24C10.039 26.036 10.015 25.796 10.015 25.52C10.015 25.232 10.039 24.992 10.087 24.8H9.00703C8.95903 24.596 8.93503 24.356 8.93503 24.08C8.93503 23.792 8.95903 23.552 9.00703 23.36H10.087C10.039 23.156 10.015 22.916 10.015 22.64C10.015 22.352 10.039 22.112 10.087 21.92H11.527C11.575 22.112 11.599 22.352 11.599 22.64C11.599 22.916 11.575 23.156 11.527 23.36C11.575 23.552 11.599 23.792 11.599 24.08C11.599 24.356 11.575 24.596 11.527 24.8C11.575 24.992 11.599 25.232 11.599 25.52C11.599 25.796 11.575 26.036 11.527 26.24C11.575 26.432 11.599 26.672 11.599 26.96C11.599 27.236 11.575 27.476 11.527 27.68C11.575 27.872 11.599 28.112 11.599 28.4C11.599 28.676 11.575 28.916 11.527 29.12C11.575 29.312 11.599 29.552 11.599 29.84C11.599 30.116 11.575 30.356 11.527 30.56H12.967ZM20.1741 30.56C20.2221 30.752 20.2461 30.992 20.2461 31.28C20.2461 31.556 20.2221 31.796 20.1741 32H15.8541C15.8061 31.796 15.7821 31.556 15.7821 31.28C15.7821 30.992 15.8061 30.752 15.8541 30.56H17.2941C17.2461 30.356 17.2221 30.116 17.2221 29.84C17.2221 29.552 17.2461 29.312 17.2941 29.12C17.2461 28.916 17.2221 28.676 17.2221 28.4C17.2221 28.112 17.2461 27.872 17.2941 27.68C17.2461 27.476 17.2221 27.236 17.2221 26.96C17.2221 26.672 17.2461 26.432 17.2941 26.24C17.2461 26.036 17.2221 25.796 17.2221 25.52C17.2221 25.232 17.2461 24.992 17.2941 24.8H16.2141C16.1661 24.596 16.1421 24.356 16.1421 24.08C16.1421 23.792 16.1661 23.552 16.2141 23.36H17.2941C17.2461 23.156 17.2221 22.916 17.2221 22.64C17.2221 22.352 17.2461 22.112 17.2941 21.92H18.7341C18.7821 22.112 18.8061 22.352 18.8061 22.64C18.8061 22.916 18.7821 23.156 18.7341 23.36C18.7821 23.552 18.8061 23.792 18.8061 24.08C18.8061 24.356 18.7821 24.596 18.7341 24.8C18.7821 24.992 18.8061 25.232 18.8061 25.52C18.8061 25.796 18.7821 26.036 18.7341 26.24C18.7821 26.432 18.8061 26.672 18.8061 26.96C18.8061 27.236 18.7821 27.476 18.7341 27.68C18.7821 27.872 18.8061 28.112 18.8061 28.4C18.8061 28.676 18.7821 28.916 18.7341 29.12C18.7821 29.312 18.8061 29.552 18.8061 29.84C18.8061 30.116 18.7821 30.356 18.7341 30.56H20.1741ZM26.1931 22.64C26.1931 22.916 26.1691 23.156 26.1211 23.36H24.3211C24.2731 23.156 24.2491 22.916 24.2491 22.64C24.2491 22.352 24.2731 22.112 24.3211 21.92H26.1211C26.1691 22.112 26.1931 22.352 26.1931 22.64ZM24.3211 29.12C24.3691 29.312 24.3931 29.552 24.3931 29.84C24.3931 30.116 24.3691 30.356 24.3211 30.56H23.4211C23.3731 30.356 23.3491 30.116 23.3491 29.84C23.3491 29.552 23.3731 29.312 23.4211 29.12H22.8811C22.8331 28.916 22.8091 28.676 22.8091 28.4C22.8091 28.112 22.8331 27.872 22.8811 27.68C22.8331 27.476 22.8091 27.236 22.8091 26.96C22.8091 26.672 22.8331 26.432 22.8811 26.24C22.8331 26.036 22.8091 25.796 22.8091 25.52C22.8091 25.232 22.8331 24.992 22.8811 24.8H23.4211C23.3731 24.596 23.3491 24.356 23.3491 24.08C23.3491 23.792 23.3731 23.552 23.4211 23.36H24.3211C24.3691 23.552 24.3931 23.792 24.3931 24.08C24.3931 24.356 24.3691 24.596 24.3211 24.8C24.3691 24.992 24.3931 25.232 24.3931 25.52C24.3931 25.796 24.3691 26.036 24.3211 26.24C24.3691 26.432 24.3931 26.672 24.3931 26.96C24.3931 27.236 24.3691 27.476 24.3211 27.68C24.3691 27.872 24.3931 28.112 24.3931 28.4C24.3931 28.676 24.3691 28.916 24.3211 29.12ZM27.5611 26.24C27.6091 26.432 27.6331 26.672 27.6331 26.96C27.6331 27.236 27.6091 27.476 27.5611 27.68C27.6091 27.872 27.6331 28.112 27.6331 28.4C27.6331 28.676 27.6091 28.916 27.5611 29.12H27.0211C27.0691 29.312 27.0931 29.552 27.0931 29.84C27.0931 30.116 27.0691 30.356 27.0211 30.56H26.1211C26.0731 30.356 26.0491 30.116 26.0491 29.84C26.0491 29.552 26.0731 29.312 26.1211 29.12C26.0731 28.916 26.0491 28.676 26.0491 28.4C26.0491 28.112 26.0731 27.872 26.1211 27.68C26.0731 27.476 26.0491 27.236 26.0491 26.96C26.0491 26.672 26.0731 26.432 26.1211 26.24C26.0731 26.036 26.0491 25.796 26.0491 25.52C26.0491 25.232 26.0731 24.992 26.1211 24.8C26.0731 24.596 26.0491 24.356 26.0491 24.08C26.0491 23.792 26.0731 23.552 26.1211 23.36H27.0211C27.0691 23.552 27.0931 23.792 27.0931 24.08C27.0931 24.356 27.0691 24.596 27.0211 24.8H27.5611C27.6091 24.992 27.6331 25.232 27.6331 25.52C27.6331 25.796 27.6091 26.036 27.5611 26.24ZM24.2491 31.28C24.2491 30.992 24.2731 30.752 24.3211 30.56H26.1211C26.1691 30.752 26.1931 30.992 26.1931 31.28C26.1931 31.556 26.1691 31.796 26.1211 32H24.3211C24.2731 31.796 24.2491 31.556 24.2491 31.28Z" fill="#B1B1B1"/>
<path d="M40.572 27.64C40.572 27.916 40.548 28.156 40.5 28.36H38.7C38.652 28.156 38.628 27.916 38.628 27.64C38.628 27.352 38.652 27.112 38.7 26.92H40.5C40.548 27.112 40.572 27.352 40.572 27.64ZM38.7 34.12C38.748 34.312 38.772 34.552 38.772 34.84C38.772 35.116 38.748 35.356 38.7 35.56H37.8C37.752 35.356 37.728 35.116 37.728 34.84C37.728 34.552 37.752 34.312 37.8 34.12H37.26C37.212 33.916 37.188 33.676 37.188 33.4C37.188 33.112 37.212 32.872 37.26 32.68C37.212 32.476 37.188 32.236 37.188 31.96C37.188 31.672 37.212 31.432 37.26 31.24C37.212 31.036 37.188 30.796 37.188 30.52C37.188 30.232 37.212 29.992 37.26 29.8H37.8C37.752 29.596 37.728 29.356 37.728 29.08C37.728 28.792 37.752 28.552 37.8 28.36H38.7C38.748 28.552 38.772 28.792 38.772 29.08C38.772 29.356 38.748 29.596 38.7 29.8C38.748 29.992 38.772 30.232 38.772 30.52C38.772 30.796 38.748 31.036 38.7 31.24C38.748 31.432 38.772 31.672 38.772 31.96C38.772 32.236 38.748 32.476 38.7 32.68C38.748 32.872 38.772 33.112 38.772 33.4C38.772 33.676 38.748 33.916 38.7 34.12ZM41.94 31.24C41.988 31.432 42.012 31.672 42.012 31.96C42.012 32.236 41.988 32.476 41.94 32.68C41.988 32.872 42.012 33.112 42.012 33.4C42.012 33.676 41.988 33.916 41.94 34.12H41.4C41.448 34.312 41.472 34.552 41.472 34.84C41.472 35.116 41.448 35.356 41.4 35.56H40.5C40.452 35.356 40.428 35.116 40.428 34.84C40.428 34.552 40.452 34.312 40.5 34.12C40.452 33.916 40.428 33.676 40.428 33.4C40.428 33.112 40.452 32.872 40.5 32.68C40.452 32.476 40.428 32.236 40.428 31.96C40.428 31.672 40.452 31.432 40.5 31.24C40.452 31.036 40.428 30.796 40.428 30.52C40.428 30.232 40.452 29.992 40.5 29.8C40.452 29.596 40.428 29.356 40.428 29.08C40.428 28.792 40.452 28.552 40.5 28.36H41.4C41.448 28.552 41.472 28.792 41.472 29.08C41.472 29.356 41.448 29.596 41.4 29.8H41.94C41.988 29.992 42.012 30.232 42.012 30.52C42.012 30.796 41.988 31.036 41.94 31.24ZM38.628 36.28C38.628 35.992 38.652 35.752 38.7 35.56H40.5C40.548 35.752 40.572 35.992 40.572 36.28C40.572 36.556 40.548 36.796 40.5 37H38.7C38.652 36.796 38.628 36.556 38.628 36.28ZM48.967 35.56C49.015 35.752 49.039 35.992 49.039 36.28C49.039 36.556 49.015 36.796 48.967 37H44.647C44.599 36.796 44.575 36.556 44.575 36.28C44.575 35.992 44.599 35.752 44.647 35.56H46.087C46.039 35.356 46.015 35.116 46.015 34.84C46.015 34.552 46.039 34.312 46.087 34.12C46.039 33.916 46.015 33.676 46.015 33.4C46.015 33.112 46.039 32.872 46.087 32.68C46.039 32.476 46.015 32.236 46.015 31.96C46.015 31.672 46.039 31.432 46.087 31.24C46.039 31.036 46.015 30.796 46.015 30.52C46.015 30.232 46.039 29.992 46.087 29.8H45.007C44.959 29.596 44.935 29.356 44.935 29.08C44.935 28.792 44.959 28.552 45.007 28.36H46.087C46.039 28.156 46.015 27.916 46.015 27.64C46.015 27.352 46.039 27.112 46.087 26.92H47.527C47.575 27.112 47.599 27.352 47.599 27.64C47.599 27.916 47.575 28.156 47.527 28.36C47.575 28.552 47.599 28.792 47.599 29.08C47.599 29.356 47.575 29.596 47.527 29.8C47.575 29.992 47.599 30.232 47.599 30.52C47.599 30.796 47.575 31.036 47.527 31.24C47.575 31.432 47.599 31.672 47.599 31.96C47.599 32.236 47.575 32.476 47.527 32.68C47.575 32.872 47.599 33.112 47.599 33.4C47.599 33.676 47.575 33.916 47.527 34.12C47.575 34.312 47.599 34.552 47.599 34.84C47.599 35.116 47.575 35.356 47.527 35.56H48.967ZM54.9861 27.64C54.9861 27.916 54.9621 28.156 54.9141 28.36H53.1141C53.0661 28.156 53.0421 27.916 53.0421 27.64C53.0421 27.352 53.0661 27.112 53.1141 26.92H54.9141C54.9621 27.112 54.9861 27.352 54.9861 27.64ZM53.1141 34.12C53.1621 34.312 53.1861 34.552 53.1861 34.84C53.1861 35.116 53.1621 35.356 53.1141 35.56H52.2141C52.1661 35.356 52.1421 35.116 52.1421 34.84C52.1421 34.552 52.1661 34.312 52.2141 34.12H51.6741C51.6261 33.916 51.6021 33.676 51.6021 33.4C51.6021 33.112 51.6261 32.872 51.6741 32.68C51.6261 32.476 51.6021 32.236 51.6021 31.96C51.6021 31.672 51.6261 31.432 51.6741 31.24C51.6261 31.036 51.6021 30.796 51.6021 30.52C51.6021 30.232 51.6261 29.992 51.6741 29.8H52.2141C52.1661 29.596 52.1421 29.356 52.1421 29.08C52.1421 28.792 52.1661 28.552 52.2141 28.36H53.1141C53.1621 28.552 53.1861 28.792 53.1861 29.08C53.1861 29.356 53.1621 29.596 53.1141 29.8C53.1621 29.992 53.1861 30.232 53.1861 30.52C53.1861 30.796 53.1621 31.036 53.1141 31.24C53.1621 31.432 53.1861 31.672 53.1861 31.96C53.1861 32.236 53.1621 32.476 53.1141 32.68C53.1621 32.872 53.1861 33.112 53.1861 33.4C53.1861 33.676 53.1621 33.916 53.1141 34.12ZM56.3541 31.24C56.4021 31.432 56.4261 31.672 56.4261 31.96C56.4261 32.236 56.4021 32.476 56.3541 32.68C56.4021 32.872 56.4261 33.112 56.4261 33.4C56.4261 33.676 56.4021 33.916 56.3541 34.12H55.8141C55.8621 34.312 55.8861 34.552 55.8861 34.84C55.8861 35.116 55.8621 35.356 55.8141 35.56H54.9141C54.8661 35.356 54.8421 35.116 54.8421 34.84C54.8421 34.552 54.8661 34.312 54.9141 34.12C54.8661 33.916 54.8421 33.676 54.8421 33.4C54.8421 33.112 54.8661 32.872 54.9141 32.68C54.8661 32.476 54.8421 32.236 54.8421 31.96C54.8421 31.672 54.8661 31.432 54.9141 31.24C54.8661 31.036 54.8421 30.796 54.8421 30.52C54.8421 30.232 54.8661 29.992 54.9141 29.8C54.8661 29.596 54.8421 29.356 54.8421 29.08C54.8421 28.792 54.8661 28.552 54.9141 28.36H55.8141C55.8621 28.552 55.8861 28.792 55.8861 29.08C55.8861 29.356 55.8621 29.596 55.8141 29.8H56.3541C56.4021 29.992 56.4261 30.232 56.4261 30.52C56.4261 30.796 56.4021 31.036 56.3541 31.24ZM53.0421 36.28C53.0421 35.992 53.0661 35.752 53.1141 35.56H54.9141C54.9621 35.752 54.9861 35.992 54.9861 36.28C54.9861 36.556 54.9621 36.796 54.9141 37H53.1141C53.0661 36.796 53.0421 36.556 53.0421 36.28ZM63.3811 35.56C63.4291 35.752 63.4531 35.992 63.4531 36.28C63.4531 36.556 63.4291 36.796 63.3811 37H59.0611C59.0131 36.796 58.9891 36.556 58.9891 36.28C58.9891 35.992 59.0131 35.752 59.0611 35.56H60.5011C60.4531 35.356 60.4291 35.116 60.4291 34.84C60.4291 34.552 60.4531 34.312 60.5011 34.12C60.4531 33.916 60.4291 33.676 60.4291 33.4C60.4291 33.112 60.4531 32.872 60.5011 32.68C60.4531 32.476 60.4291 32.236 60.4291 31.96C60.4291 31.672 60.4531 31.432 60.5011 31.24C60.4531 31.036 60.4291 30.796 60.4291 30.52C60.4291 30.232 60.4531 29.992 60.5011 29.8H59.4211C59.3731 29.596 59.3491 29.356 59.3491 29.08C59.3491 28.792 59.3731 28.552 59.4211 28.36H60.5011C60.4531 28.156 60.4291 27.916 60.4291 27.64C60.4291 27.352 60.4531 27.112 60.5011 26.92H61.9411C61.9891 27.112 62.0131 27.352 62.0131 27.64C62.0131 27.916 61.9891 28.156 61.9411 28.36C61.9891 28.552 62.0131 28.792 62.0131 29.08C62.0131 29.356 61.9891 29.596 61.9411 29.8C61.9891 29.992 62.0131 30.232 62.0131 30.52C62.0131 30.796 61.9891 31.036 61.9411 31.24C61.9891 31.432 62.0131 31.672 62.0131 31.96C62.0131 32.236 61.9891 32.476 61.9411 32.68C61.9891 32.872 62.0131 33.112 62.0131 33.4C62.0131 33.676 61.9891 33.916 61.9411 34.12C61.9891 34.312 62.0131 34.552 62.0131 34.84C62.0131 35.116 61.9891 35.356 61.9411 35.56H63.3811ZM69.4001 27.64C69.4001 27.916 69.3761 28.156 69.3281 28.36H67.5281C67.4801 28.156 67.4561 27.916 67.4561 27.64C67.4561 27.352 67.4801 27.112 67.5281 26.92H69.3281C69.3761 27.112 69.4001 27.352 69.4001 27.64ZM67.5281 34.12C67.5761 34.312 67.6001 34.552 67.6001 34.84C67.6001 35.116 67.5761 35.356 67.5281 35.56H66.6281C66.5801 35.356 66.5561 35.116 66.5561 34.84C66.5561 34.552 66.5801 34.312 66.6281 34.12H66.0881C66.0401 33.916 66.0161 33.676 66.0161 33.4C66.0161 33.112 66.0401 32.872 66.0881 32.68C66.0401 32.476 66.0161 32.236 66.0161 31.96C66.0161 31.672 66.0401 31.432 66.0881 31.24C66.0401 31.036 66.0161 30.796 66.0161 30.52C66.0161 30.232 66.0401 29.992 66.0881 29.8H66.6281C66.5801 29.596 66.5561 29.356 66.5561 29.08C66.5561 28.792 66.5801 28.552 66.6281 28.36H67.5281C67.5761 28.552 67.6001 28.792 67.6001 29.08C67.6001 29.356 67.5761 29.596 67.5281 29.8C67.5761 29.992 67.6001 30.232 67.6001 30.52C67.6001 30.796 67.5761 31.036 67.5281 31.24C67.5761 31.432 67.6001 31.672 67.6001 31.96C67.6001 32.236 67.5761 32.476 67.5281 32.68C67.5761 32.872 67.6001 33.112 67.6001 33.4C67.6001 33.676 67.5761 33.916 67.5281 34.12ZM70.7681 31.24C70.8161 31.432 70.8401 31.672 70.8401 31.96C70.8401 32.236 70.8161 32.476 70.7681 32.68C70.8161 32.872 70.8401 33.112 70.8401 33.4C70.8401 33.676 70.8161 33.916 70.7681 34.12H70.2281C70.2761 34.312 70.3001 34.552 70.3001 34.84C70.3001 35.116 70.2761 35.356 70.2281 35.56H69.3281C69.2801 35.356 69.2561 35.116 69.2561 34.84C69.2561 34.552 69.2801 34.312 69.3281 34.12C69.2801 33.916 69.2561 33.676 69.2561 33.4C69.2561 33.112 69.2801 32.872 69.3281 32.68C69.2801 32.476 69.2561 32.236 69.2561 31.96C69.2561 31.672 69.2801 31.432 69.3281 31.24C69.2801 31.036 69.2561 30.796 69.2561 30.52C69.2561 30.232 69.2801 29.992 69.3281 29.8C69.2801 29.596 69.2561 29.356 69.2561 29.08C69.2561 28.792 69.2801 28.552 69.3281 28.36H70.2281C70.2761 28.552 70.3001 28.792 70.3001 29.08C70.3001 29.356 70.2761 29.596 70.2281 29.8H70.7681C70.8161 29.992 70.8401 30.232 70.8401 30.52C70.8401 30.796 70.8161 31.036 70.7681 31.24ZM67.4561 36.28C67.4561 35.992 67.4801 35.752 67.5281 35.56H69.3281C69.3761 35.752 69.4001 35.992 69.4001 36.28C69.4001 36.556 69.3761 36.796 69.3281 37H67.5281C67.4801 36.796 67.4561 36.556 67.4561 36.28ZM40.572 45.64C40.572 45.916 40.548 46.156 40.5 46.36H38.7C38.652 46.156 38.628 45.916 38.628 45.64C38.628 45.352 38.652 45.112 38.7 44.92H40.5C40.548 45.112 40.572 45.352 40.572 45.64ZM38.7 52.12C38.748 52.312 38.772 52.552 38.772 52.84C38.772 53.116 38.748 53.356 38.7 53.56H37.8C37.752 53.356 37.728 53.116 37.728 52.84C37.728 52.552 37.752 52.312 37.8 52.12H37.26C37.212 51.916 37.188 51.676 37.188 51.4C37.188 51.112 37.212 50.872 37.26 50.68C37.212 50.476 37.188 50.236 37.188 49.96C37.188 49.672 37.212 49.432 37.26 49.24C37.212 49.036 37.188 48.796 37.188 48.52C37.188 48.232 37.212 47.992 37.26 47.8H37.8C37.752 47.596 37.728 47.356 37.728 47.08C37.728 46.792 37.752 46.552 37.8 46.36H38.7C38.748 46.552 38.772 46.792 38.772 47.08C38.772 47.356 38.748 47.596 38.7 47.8C38.748 47.992 38.772 48.232 38.772 48.52C38.772 48.796 38.748 49.036 38.7 49.24C38.748 49.432 38.772 49.672 38.772 49.96C38.772 50.236 38.748 50.476 38.7 50.68C38.748 50.872 38.772 51.112 38.772 51.4C38.772 51.676 38.748 51.916 38.7 52.12ZM41.94 49.24C41.988 49.432 42.012 49.672 42.012 49.96C42.012 50.236 41.988 50.476 41.94 50.68C41.988 50.872 42.012 51.112 42.012 51.4C42.012 51.676 41.988 51.916 41.94 52.12H41.4C41.448 52.312 41.472 52.552 41.472 52.84C41.472 53.116 41.448 53.356 41.4 53.56H40.5C40.452 53.356 40.428 53.116 40.428 52.84C40.428 52.552 40.452 52.312 40.5 52.12C40.452 51.916 40.428 51.676 40.428 51.4C40.428 51.112 40.452 50.872 40.5 50.68C40.452 50.476 40.428 50.236 40.428 49.96C40.428 49.672 40.452 49.432 40.5 49.24C40.452 49.036 40.428 48.796 40.428 48.52C40.428 48.232 40.452 47.992 40.5 47.8C40.452 47.596 40.428 47.356 40.428 47.08C40.428 46.792 40.452 46.552 40.5 46.36H41.4C41.448 46.552 41.472 46.792 41.472 47.08C41.472 47.356 41.448 47.596 41.4 47.8H41.94C41.988 47.992 42.012 48.232 42.012 48.52C42.012 48.796 41.988 49.036 41.94 49.24ZM38.628 54.28C38.628 53.992 38.652 53.752 38.7 53.56H40.5C40.548 53.752 40.572 53.992 40.572 54.28C40.572 54.556 40.548 54.796 40.5 55H38.7C38.652 54.796 38.628 54.556 38.628 54.28ZM47.779 45.64C47.779 45.916 47.755 46.156 47.707 46.36H45.907C45.859 46.156 45.835 45.916 45.835 45.64C45.835 45.352 45.859 45.112 45.907 44.92H47.707C47.755 45.112 47.779 45.352 47.779 45.64ZM45.907 52.12C45.955 52.312 45.979 52.552 45.979 52.84C45.979 53.116 45.955 53.356 45.907 53.56H45.007C44.959 53.356 44.935 53.116 44.935 52.84C44.935 52.552 44.959 52.312 45.007 52.12H44.467C44.419 51.916 44.395 51.676 44.395 51.4C44.395 51.112 44.419 50.872 44.467 50.68C44.419 50.476 44.395 50.236 44.395 49.96C44.395 49.672 44.419 49.432 44.467 49.24C44.419 49.036 44.395 48.796 44.395 48.52C44.395 48.232 44.419 47.992 44.467 47.8H45.007C44.959 47.596 44.935 47.356 44.935 47.08C44.935 46.792 44.959 46.552 45.007 46.36H45.907C45.955 46.552 45.979 46.792 45.979 47.08C45.979 47.356 45.955 47.596 45.907 47.8C45.955 47.992 45.979 48.232 45.979 48.52C45.979 48.796 45.955 49.036 45.907 49.24C45.955 49.432 45.979 49.672 45.979 49.96C45.979 50.236 45.955 50.476 45.907 50.68C45.955 50.872 45.979 51.112 45.979 51.4C45.979 51.676 45.955 51.916 45.907 52.12ZM49.147 49.24C49.195 49.432 49.219 49.672 49.219 49.96C49.219 50.236 49.195 50.476 49.147 50.68C49.195 50.872 49.219 51.112 49.219 51.4C49.219 51.676 49.195 51.916 49.147 52.12H48.607C48.655 52.312 48.679 52.552 48.679 52.84C48.679 53.116 48.655 53.356 48.607 53.56H47.707C47.659 53.356 47.635 53.116 47.635 52.84C47.635 52.552 47.659 52.312 47.707 52.12C47.659 51.916 47.635 51.676 47.635 51.4C47.635 51.112 47.659 50.872 47.707 50.68C47.659 50.476 47.635 50.236 47.635 49.96C47.635 49.672 47.659 49.432 47.707 49.24C47.659 49.036 47.635 48.796 47.635 48.52C47.635 48.232 47.659 47.992 47.707 47.8C47.659 47.596 47.635 47.356 47.635 47.08C47.635 46.792 47.659 46.552 47.707 46.36H48.607C48.655 46.552 48.679 46.792 48.679 47.08C48.679 47.356 48.655 47.596 48.607 47.8H49.147C49.195 47.992 49.219 48.232 49.219 48.52C49.219 48.796 49.195 49.036 49.147 49.24ZM45.835 54.28C45.835 53.992 45.859 53.752 45.907 53.56H47.707C47.755 53.752 47.779 53.992 47.779 54.28C47.779 54.556 47.755 54.796 47.707 55H45.907C45.859 54.796 45.835 54.556 45.835 54.28ZM54.9861 45.64C54.9861 45.916 54.9621 46.156 54.9141 46.36H53.1141C53.0661 46.156 53.0421 45.916 53.0421 45.64C53.0421 45.352 53.0661 45.112 53.1141 44.92H54.9141C54.9621 45.112 54.9861 45.352 54.9861 45.64ZM53.1141 52.12C53.1621 52.312 53.1861 52.552 53.1861 52.84C53.1861 53.116 53.1621 53.356 53.1141 53.56H52.2141C52.1661 53.356 52.1421 53.116 52.1421 52.84C52.1421 52.552 52.1661 52.312 52.2141 52.12H51.6741C51.6261 51.916 51.6021 51.676 51.6021 51.4C51.6021 51.112 51.6261 50.872 51.6741 50.68C51.6261 50.476 51.6021 50.236 51.6021 49.96C51.6021 49.672 51.6261 49.432 51.6741 49.24C51.6261 49.036 51.6021 48.796 51.6021 48.52C51.6021 48.232 51.6261 47.992 51.6741 47.8H52.2141C52.1661 47.596 52.1421 47.356 52.1421 47.08C52.1421 46.792 52.1661 46.552 52.2141 46.36H53.1141C53.1621 46.552 53.1861 46.792 53.1861 47.08C53.1861 47.356 53.1621 47.596 53.1141 47.8C53.1621 47.992 53.1861 48.232 53.1861 48.52C53.1861 48.796 53.1621 49.036 53.1141 49.24C53.1621 49.432 53.1861 49.672 53.1861 49.96C53.1861 50.236 53.1621 50.476 53.1141 50.68C53.1621 50.872 53.1861 51.112 53.1861 51.4C53.1861 51.676 53.1621 51.916 53.1141 52.12ZM56.3541 49.24C56.4021 49.432 56.4261 49.672 56.4261 49.96C56.4261 50.236 56.4021 50.476 56.3541 50.68C56.4021 50.872 56.4261 51.112 56.4261 51.4C56.4261 51.676 56.4021 51.916 56.3541 52.12H55.8141C55.8621 52.312 55.8861 52.552 55.8861 52.84C55.8861 53.116 55.8621 53.356 55.8141 53.56H54.9141C54.8661 53.356 54.8421 53.116 54.8421 52.84C54.8421 52.552 54.8661 52.312 54.9141 52.12C54.8661 51.916 54.8421 51.676 54.8421 51.4C54.8421 51.112 54.8661 50.872 54.9141 50.68C54.8661 50.476 54.8421 50.236 54.8421 49.96C54.8421 49.672 54.8661 49.432 54.9141 49.24C54.8661 49.036 54.8421 48.796 54.8421 48.52C54.8421 48.232 54.8661 47.992 54.9141 47.8C54.8661 47.596 54.8421 47.356 54.8421 47.08C54.8421 46.792 54.8661 46.552 54.9141 46.36H55.8141C55.8621 46.552 55.8861 46.792 55.8861 47.08C55.8861 47.356 55.8621 47.596 55.8141 47.8H56.3541C56.4021 47.992 56.4261 48.232 56.4261 48.52C56.4261 48.796 56.4021 49.036 56.3541 49.24ZM53.0421 54.28C53.0421 53.992 53.0661 53.752 53.1141 53.56H54.9141C54.9621 53.752 54.9861 53.992 54.9861 54.28C54.9861 54.556 54.9621 54.796 54.9141 55H53.1141C53.0661 54.796 53.0421 54.556 53.0421 54.28Z" fill="#B1B1B1"/>
<path d="M63.3631 49.96C63.3631 50.236 63.3391 50.476 63.2911 50.68H62.3911C62.4391 50.872 62.4631 51.112 62.4631 51.4C62.4631 51.676 62.4391 51.916 62.3911 52.12H61.4911C61.5391 52.312 61.5631 52.552 61.5631 52.84C61.5631 53.116 61.5391 53.356 61.4911 53.56H60.5911C60.6391 53.752 60.6631 53.992 60.6631 54.28C60.6631 54.556 60.6391 54.796 60.5911 55H59.1511C59.1031 54.796 59.0791 54.556 59.0791 54.28C59.0791 53.992 59.1031 53.752 59.1511 53.56H60.0511C60.0031 53.356 59.9791 53.116 59.9791 52.84C59.9791 52.552 60.0031 52.312 60.0511 52.12H60.9511C60.9031 51.916 60.8791 51.676 60.8791 51.4C60.8791 51.112 60.9031 50.872 60.9511 50.68H61.8511C61.8031 50.476 61.7791 50.236 61.7791 49.96C61.7791 49.672 61.8031 49.432 61.8511 49.24H60.9511C60.9031 49.036 60.8791 48.796 60.8791 48.52C60.8791 48.232 60.9031 47.992 60.9511 47.8H60.0511C60.0031 47.596 59.9791 47.356 59.9791 47.08C59.9791 46.792 60.0031 46.552 60.0511 46.36H59.1511C59.1031 46.156 59.0791 45.916 59.0791 45.64C59.0791 45.352 59.1031 45.112 59.1511 44.92H60.5911C60.6391 45.112 60.6631 45.352 60.6631 45.64C60.6631 45.916 60.6391 46.156 60.5911 46.36H61.4911C61.5391 46.552 61.5631 46.792 61.5631 47.08C61.5631 47.356 61.5391 47.596 61.4911 47.8H62.3911C62.4391 47.992 62.4631 48.232 62.4631 48.52C62.4631 48.796 62.4391 49.036 62.3911 49.24H63.2911C63.3391 49.432 63.3631 49.672 63.3631 49.96Z" fill="#7CAAAD"/>
</svg>
