<svg width="51" height="51" viewBox="0 0 51 51" fill="none" xmlns="http://www.w3.org/2000/svg">
<path d="M6.48 12.56C6.528 12.752 6.552 12.992 6.552 13.28C6.552 13.556 6.528 13.796 6.48 14H0.72C0.672 13.796 0.648 13.556 0.648 13.28C0.648 12.992 0.672 12.752 0.72 12.56H6.48ZM13.687 12.56C13.735 12.752 13.759 12.992 13.759 13.28C13.759 13.556 13.735 13.796 13.687 14H7.92703C7.87903 13.796 7.85503 13.556 7.85503 13.28C7.85503 12.992 7.87903 12.752 7.92703 12.56H13.687ZM20.8941 12.56C20.9421 12.752 20.9661 12.992 20.9661 13.28C20.9661 13.556 20.9421 13.796 20.8941 14H15.1341C15.0861 13.796 15.0621 13.556 15.0621 13.28C15.0621 12.992 15.0861 12.752 15.1341 12.56H20.8941ZM28.1011 12.56C28.1491 12.752 28.1731 12.992 28.1731 13.28C28.1731 13.556 28.1491 13.796 28.1011 14H22.3411C22.2931 13.796 22.2691 13.556 22.2691 13.28C22.2691 12.992 22.2931 12.752 22.3411 12.56H28.1011ZM35.3081 12.56C35.3561 12.752 35.3801 12.992 35.3801 13.28C35.3801 13.556 35.3561 13.796 35.3081 14H29.5481C29.5001 13.796 29.4761 13.556 29.4761 13.28C29.4761 12.992 29.5001 12.752 29.5481 12.56H35.3081ZM42.5152 12.56C42.5632 12.752 42.5872 12.992 42.5872 13.28C42.5872 13.556 42.5632 13.796 42.5152 14H36.7552C36.7072 13.796 36.6832 13.556 36.6832 13.28C36.6832 12.992 36.7072 12.752 36.7552 12.56H42.5152ZM49.7222 12.56C49.7702 12.752 49.7942 12.992 49.7942 13.28C49.7942 13.556 49.7702 13.796 49.7222 14H43.9622C43.9142 13.796 43.8902 13.556 43.8902 13.28C43.8902 12.992 43.9142 12.752 43.9622 12.56H49.7222ZM6.48 30.56C6.528 30.752 6.552 30.992 6.552 31.28C6.552 31.556 6.528 31.796 6.48 32H0.72C0.672 31.796 0.648 31.556 0.648 31.28C0.648 30.992 0.672 30.752 0.72 30.56H6.48ZM13.687 30.56C13.735 30.752 13.759 30.992 13.759 31.28C13.759 31.556 13.735 31.796 13.687 32H7.92703C7.87903 31.796 7.85503 31.556 7.85503 31.28C7.85503 30.992 7.87903 30.752 7.92703 30.56H13.687ZM20.8941 30.56C20.9421 30.752 20.9661 30.992 20.9661 31.28C20.9661 31.556 20.9421 31.796 20.8941 32H15.1341C15.0861 31.796 15.0621 31.556 15.0621 31.28C15.0621 30.992 15.0861 30.752 15.1341 30.56H20.8941ZM28.1011 30.56C28.1491 30.752 28.1731 30.992 28.1731 31.28C28.1731 31.556 28.1491 31.796 28.1011 32H22.3411C22.2931 31.796 22.2691 31.556 22.2691 31.28C22.2691 30.992 22.2931 30.752 22.3411 30.56H28.1011ZM35.3081 30.56C35.3561 30.752 35.3801 30.992 35.3801 31.28C35.3801 31.556 35.3561 31.796 35.3081 32H29.5481C29.5001 31.796 29.4761 31.556 29.4761 31.28C29.4761 30.992 29.5001 30.752 29.5481 30.56H35.3081ZM42.5152 30.56C42.5632 30.752 42.5872 30.992 42.5872 31.28C42.5872 31.556 42.5632 31.796 42.5152 32H36.7552C36.7072 31.796 36.6832 31.556 36.6832 31.28C36.6832 30.992 36.7072 30.752 36.7552 30.56H42.5152ZM49.7222 30.56C49.7702 30.752 49.7942 30.992 49.7942 31.28C49.7942 31.556 49.7702 31.796 49.7222 32H43.9622C43.9142 31.796 43.8902 31.556 43.8902 31.28C43.8902 30.992 43.9142 30.752 43.9622 30.56H49.7222ZM6.48 48.56C6.528 48.752 6.552 48.992 6.552 49.28C6.552 49.556 6.528 49.796 6.48 50H0.72C0.672 49.796 0.648 49.556 0.648 49.28C0.648 48.992 0.672 48.752 0.72 48.56H6.48ZM13.687 48.56C13.735 48.752 13.759 48.992 13.759 49.28C13.759 49.556 13.735 49.796 13.687 50H7.92703C7.87903 49.796 7.85503 49.556 7.85503 49.28C7.85503 48.992 7.87903 48.752 7.92703 48.56H13.687ZM20.8941 48.56C20.9421 48.752 20.9661 48.992 20.9661 49.28C20.9661 49.556 20.9421 49.796 20.8941 50H15.1341C15.0861 49.796 15.0621 49.556 15.0621 49.28C15.0621 48.992 15.0861 48.752 15.1341 48.56H20.8941ZM28.1011 48.56C28.1491 48.752 28.1731 48.992 28.1731 49.28C28.1731 49.556 28.1491 49.796 28.1011 50H22.3411C22.2931 49.796 22.2691 49.556 22.2691 49.28C22.2691 48.992 22.2931 48.752 22.3411 48.56H28.1011ZM35.3081 48.56C35.3561 48.752 35.3801 48.992 35.3801 49.28C35.3801 49.556 35.3561 49.796 35.3081 50H29.5481C29.5001 49.796 29.4761 49.556 29.4761 49.28C29.4761 48.992 29.5001 48.752 29.5481 48.56H35.3081ZM42.5152 48.56C42.5632 48.752 42.5872 48.992 42.5872 49.28C42.5872 49.556 42.5632 49.796 42.5152 50H36.7552C36.7072 49.796 36.6832 49.556 36.6832 49.28C36.6832 48.992 36.7072 48.752 36.7552 48.56H42.5152ZM49.7222 48.56C49.7702 48.752 49.7942 48.992 49.7942 49.28C49.7942 49.556 49.7702 49.796 49.7222 50H43.9622C43.9142 49.796 43.8902 49.556 43.8902 49.28C43.8902 48.992 43.9142 48.752 43.9622 48.56H49.7222Z" fill="#B1B1B1"/>
</svg>
