<svg width="112" height="24" viewBox="0 0 112 24" fill="none" xmlns="http://www.w3.org/2000/svg">
<path d="M8.68574 21C8.77107 21.3413 8.81374 21.768 8.81374 22.28C8.81374 22.7707 8.77107 23.1973 8.68574 23.56H4.84574C4.76041 23.1973 4.71774 22.7707 4.71774 22.28C4.71774 21.768 4.76041 21.3413 4.84574 21H3.56574C3.48041 20.6373 3.43774 20.2107 3.43774 19.72C3.43774 19.208 3.48041 18.7813 3.56574 18.44C3.48041 18.0773 3.43774 17.6507 3.43774 17.16C3.43774 16.648 3.48041 16.2213 3.56574 15.88C3.48041 15.5173 3.43774 15.0907 3.43774 14.6C3.43774 14.088 3.48041 13.6613 3.56574 13.32H1.00574C0.920407 12.9573 0.87774 12.5307 0.87774 12.04C0.87774 11.528 0.920407 11.1013 1.00574 10.76H3.56574C3.48041 10.3973 3.43774 9.97067 3.43774 9.48C3.43774 8.968 3.48041 8.54133 3.56574 8.2C3.48041 7.83733 3.43774 7.41067 3.43774 6.92C3.43774 6.408 3.48041 5.98133 3.56574 5.64C3.48041 5.27733 3.43774 4.85067 3.43774 4.36C3.43774 3.848 3.48041 3.42133 3.56574 3.08H4.84574C4.76041 2.71733 4.71774 2.29067 4.71774 1.8C4.71774 1.288 4.76041 0.861333 4.84574 0.519999H8.68574C8.77107 0.861333 8.81374 1.288 8.81374 1.8C8.81374 2.29067 8.77107 2.71733 8.68574 3.08H6.12574C6.21107 3.42133 6.25374 3.848 6.25374 4.36C6.25374 4.85067 6.21107 5.27733 6.12574 5.64C6.21107 5.98133 6.25374 6.408 6.25374 6.92C6.25374 7.41067 6.21107 7.83733 6.12574 8.2C6.21107 8.54133 6.25374 8.968 6.25374 9.48C6.25374 9.97067 6.21107 10.3973 6.12574 10.76H4.84574C4.93107 11.1013 4.97374 11.528 4.97374 12.04C4.97374 12.5307 4.93107 12.9573 4.84574 13.32H6.12574C6.21107 13.6613 6.25374 14.088 6.25374 14.6C6.25374 15.0907 6.21107 15.5173 6.12574 15.88C6.21107 16.2213 6.25374 16.648 6.25374 17.16C6.25374 17.6507 6.21107 18.0773 6.12574 18.44C6.21107 18.7813 6.25374 19.208 6.25374 19.72C6.25374 20.2107 6.21107 20.6373 6.12574 21H8.68574ZM35.5907 18.44C35.6761 18.7813 35.7187 19.208 35.7187 19.72C35.7187 20.2107 35.6761 20.6373 35.5907 21H25.3507C25.2654 20.6373 25.2227 20.2107 25.2227 19.72C25.2227 19.208 25.2654 18.7813 25.3507 18.44H35.5907ZM47.8912 17.16C47.8912 17.6507 47.8486 18.0773 47.7632 18.44H46.4832C46.5686 18.7813 46.6112 19.208 46.6112 19.72C46.6112 20.2107 46.5686 20.6373 46.4832 21H39.4432C39.3579 20.6373 39.3152 20.2107 39.3152 19.72C39.3152 19.208 39.3579 18.7813 39.4432 18.44H45.2032C45.1179 18.0773 45.0752 17.6507 45.0752 17.16C45.0752 16.648 45.1179 16.2213 45.2032 15.88H40.0832C39.9979 15.5173 39.9552 15.0907 39.9552 14.6C39.9552 14.088 39.9979 13.6613 40.0832 13.32H38.8032C38.7179 12.9573 38.6752 12.5307 38.6752 12.04C38.6752 11.528 38.7179 11.1013 38.8032 10.76H40.0832C39.9979 10.3973 39.9552 9.97067 39.9552 9.48C39.9552 8.968 39.9979 8.54133 40.0832 8.2H47.1232C47.2086 8.54133 47.2512 8.968 47.2512 9.48C47.2512 9.97067 47.2086 10.3973 47.1232 10.76H41.3632C41.4486 11.1013 41.4912 11.528 41.4912 12.04C41.4912 12.5307 41.4486 12.9573 41.3632 13.32H46.4832C46.5686 13.6613 46.6112 14.088 46.6112 14.6C46.6112 15.0907 46.5686 15.5173 46.4832 15.88H47.7632C47.8486 16.2213 47.8912 16.648 47.8912 17.16ZM61.3437 12.04C61.3437 12.5307 61.3011 12.9573 61.2157 13.32C61.3011 13.6613 61.3437 14.088 61.3437 14.6C61.3437 15.0907 61.3011 15.5173 61.2157 15.88H54.4957C54.5811 16.2213 54.6237 16.648 54.6237 17.16C54.6237 17.6507 54.5811 18.0773 54.4957 18.44H59.9357C60.0211 18.7813 60.0637 19.208 60.0637 19.72C60.0637 20.2107 60.0211 20.6373 59.9357 21H53.5357C53.4504 20.6373 53.4077 20.2107 53.4077 19.72C53.4077 19.208 53.4504 18.7813 53.5357 18.44H51.9357C51.8504 18.0773 51.8077 17.6507 51.8077 17.16C51.8077 16.648 51.8504 16.2213 51.9357 15.88H50.9757C50.8904 15.5173 50.8477 15.0907 50.8477 14.6C50.8477 14.088 50.8904 13.6613 50.9757 13.32H51.9357C51.8504 12.9573 51.8077 12.5307 51.8077 12.04C51.8077 11.528 51.8504 11.1013 51.9357 10.76H53.5357C53.4504 10.3973 53.4077 9.97067 53.4077 9.48C53.4077 8.968 53.4504 8.54133 53.5357 8.2H59.9357C60.0211 8.54133 60.0637 8.968 60.0637 9.48C60.0637 9.97067 60.0211 10.3973 59.9357 10.76H61.2157C61.3011 11.1013 61.3437 11.528 61.3437 12.04ZM58.6557 13.32C58.5704 12.9573 58.5277 12.5307 58.5277 12.04C58.5277 11.528 58.5704 11.1013 58.6557 10.76H54.4957C54.5811 11.1013 54.6237 11.528 54.6237 12.04C54.6237 12.5307 54.5811 12.9573 54.4957 13.32H58.6557ZM66.1562 9.48C66.1562 9.97067 66.1136 10.3973 66.0282 10.76H67.3082C67.3936 11.1013 67.4362 11.528 67.4362 12.04C67.4362 12.5307 67.3936 12.9573 67.3082 13.32H66.3482C66.4336 13.6613 66.4762 14.088 66.4762 14.6C66.4762 15.0907 66.4336 15.5173 66.3482 15.88C66.4336 16.2213 66.4762 16.648 66.4762 17.16C66.4762 17.6507 66.4336 18.0773 66.3482 18.44C66.4336 18.7813 66.4762 19.208 66.4762 19.72C66.4762 20.2107 66.4336 20.6373 66.3482 21H63.7882C63.7029 20.6373 63.6602 20.2107 63.6602 19.72C63.6602 19.208 63.7029 18.7813 63.7882 18.44C63.7029 18.0773 63.6602 17.6507 63.6602 17.16C63.6602 16.648 63.7029 16.2213 63.7882 15.88C63.7029 15.5173 63.6602 15.0907 63.6602 14.6C63.6602 14.088 63.7029 13.6613 63.7882 13.32C63.7029 12.9573 63.6602 12.5307 63.6602 12.04C63.6602 11.528 63.7029 11.1013 63.7882 10.76C63.7029 10.3973 63.6602 9.97067 63.6602 9.48C63.6602 8.968 63.7029 8.54133 63.7882 8.2H66.0282C66.1136 8.54133 66.1562 8.968 66.1562 9.48ZM74.0282 13.32C74.1136 13.6613 74.1562 14.088 74.1562 14.6C74.1562 15.0907 74.1136 15.5173 74.0282 15.88C74.1136 16.2213 74.1562 16.648 74.1562 17.16C74.1562 17.6507 74.1136 18.0773 74.0282 18.44C74.1136 18.7813 74.1562 19.208 74.1562 19.72C74.1562 20.2107 74.1136 20.6373 74.0282 21H71.4682C71.3829 20.6373 71.3402 20.2107 71.3402 19.72C71.3402 19.208 71.3829 18.7813 71.4682 18.44C71.3829 18.0773 71.3402 17.6507 71.3402 17.16C71.3402 16.648 71.3829 16.2213 71.4682 15.88C71.3829 15.5173 71.3402 15.0907 71.3402 14.6C71.3402 14.088 71.3829 13.6613 71.4682 13.32C71.3829 12.9573 71.3402 12.5307 71.3402 12.04C71.3402 11.528 71.3829 11.1013 71.4682 10.76H67.3082C67.2229 10.3973 67.1802 9.97067 67.1802 9.48C67.1802 8.968 67.2229 8.54133 67.3082 8.2H72.4282C72.5136 8.54133 72.5562 8.968 72.5562 9.48C72.5562 9.97067 72.5136 10.3973 72.4282 10.76H74.0282C74.1136 11.1013 74.1562 11.528 74.1562 12.04C74.1562 12.5307 74.1136 12.9573 74.0282 13.32ZM86.8407 5.64C86.9261 5.98133 86.9687 6.408 86.9687 6.92C86.9687 7.41067 86.9261 7.83733 86.8407 8.2C86.9261 8.54133 86.9687 8.968 86.9687 9.48C86.9687 9.97067 86.9261 10.3973 86.8407 10.76C86.9261 11.1013 86.9687 11.528 86.9687 12.04C86.9687 12.5307 86.9261 12.9573 86.8407 13.32C86.9261 13.6613 86.9687 14.088 86.9687 14.6C86.9687 15.0907 86.9261 15.5173 86.8407 15.88C86.9261 16.2213 86.9687 16.648 86.9687 17.16C86.9687 17.6507 86.9261 18.0773 86.8407 18.44C86.9261 18.7813 86.9687 19.208 86.9687 19.72C86.9687 20.2107 86.9261 20.6373 86.8407 21H84.2807C84.1954 20.6373 84.1527 20.2107 84.1527 19.72C84.1527 19.208 84.1954 18.7813 84.2807 18.44H83.3207C83.2354 18.0773 83.1927 17.6507 83.1927 17.16C83.1927 16.648 83.2354 16.2213 83.3207 15.88H84.2807C84.1954 15.5173 84.1527 15.0907 84.1527 14.6C84.1527 14.088 84.1954 13.6613 84.2807 13.32H83.3207C83.2354 12.9573 83.1927 12.5307 83.1927 12.04C83.1927 11.528 83.2354 11.1013 83.3207 10.76H84.2807C84.1954 10.3973 84.1527 9.97067 84.1527 9.48C84.1527 8.968 84.1954 8.54133 84.2807 8.2C84.1954 7.83733 84.1527 7.41067 84.1527 6.92C84.1527 6.408 84.1954 5.98133 84.2807 5.64C84.1954 5.27733 84.1527 4.85067 84.1527 4.36C84.1527 3.848 84.1954 3.42133 84.2807 3.08H86.8407C86.9261 3.42133 86.9687 3.848 86.9687 4.36C86.9687 4.85067 86.9261 5.27733 86.8407 5.64ZM82.8087 9.48C82.8087 9.97067 82.7661 10.3973 82.6807 10.76H79.4807C79.5661 11.1013 79.6087 11.528 79.6087 12.04C79.6087 12.5307 79.5661 12.9573 79.4807 13.32H78.5207C78.6061 13.6613 78.6487 14.088 78.6487 14.6C78.6487 15.0907 78.6061 15.5173 78.5207 15.88H79.4807C79.5661 16.2213 79.6087 16.648 79.6087 17.16C79.6087 17.6507 79.5661 18.0773 79.4807 18.44H82.6807C82.7661 18.7813 82.8087 19.208 82.8087 19.72C82.8087 20.2107 82.7661 20.6373 82.6807 21H79.1607C79.0754 20.6373 79.0327 20.2107 79.0327 19.72C79.0327 19.208 79.0754 18.7813 79.1607 18.44H77.5607C77.4754 18.0773 77.4327 17.6507 77.4327 17.16C77.4327 16.648 77.4754 16.2213 77.5607 15.88H76.6007C76.5154 15.5173 76.4727 15.0907 76.4727 14.6C76.4727 14.088 76.5154 13.6613 76.6007 13.32H77.5607C77.4754 12.9573 77.4327 12.5307 77.4327 12.04C77.4327 11.528 77.4754 11.1013 77.5607 10.76H79.1607C79.0754 10.3973 79.0327 9.97067 79.0327 9.48C79.0327 8.968 79.0754 8.54133 79.1607 8.2H82.6807C82.7661 8.54133 82.8087 8.968 82.8087 9.48ZM111.314 12.04C111.314 12.5307 111.271 12.9573 111.186 13.32H108.626C108.711 13.6613 108.754 14.088 108.754 14.6C108.754 15.0907 108.711 15.5173 108.626 15.88C108.711 16.2213 108.754 16.648 108.754 17.16C108.754 17.6507 108.711 18.0773 108.626 18.44C108.711 18.7813 108.754 19.208 108.754 19.72C108.754 20.2107 108.711 20.6373 108.626 21H107.346C107.431 21.3413 107.474 21.768 107.474 22.28C107.474 22.7707 107.431 23.1973 107.346 23.56H103.506C103.42 23.1973 103.378 22.7707 103.378 22.28C103.378 21.768 103.42 21.3413 103.506 21H106.066C105.98 20.6373 105.938 20.2107 105.938 19.72C105.938 19.208 105.98 18.7813 106.066 18.44C105.98 18.0773 105.938 17.6507 105.938 17.16C105.938 16.648 105.98 16.2213 106.066 15.88C105.98 15.5173 105.938 15.0907 105.938 14.6C105.938 14.088 105.98 13.6613 106.066 13.32H107.346C107.26 12.9573 107.218 12.5307 107.218 12.04C107.218 11.528 107.26 11.1013 107.346 10.76H106.066C105.98 10.3973 105.938 9.97067 105.938 9.48C105.938 8.968 105.98 8.54133 106.066 8.2C105.98 7.83733 105.938 7.41067 105.938 6.92C105.938 6.408 105.98 5.98133 106.066 5.64C105.98 5.27733 105.938 4.85067 105.938 4.36C105.938 3.848 105.98 3.42133 106.066 3.08H103.506C103.42 2.71733 103.378 2.29067 103.378 1.8C103.378 1.288 103.42 0.861333 103.506 0.519999H107.346C107.431 0.861333 107.474 1.288 107.474 1.8C107.474 2.29067 107.431 2.71733 107.346 3.08H108.626C108.711 3.42133 108.754 3.848 108.754 4.36C108.754 4.85067 108.711 5.27733 108.626 5.64C108.711 5.98133 108.754 6.408 108.754 6.92C108.754 7.41067 108.711 7.83733 108.626 8.2C108.711 8.54133 108.754 8.968 108.754 9.48C108.754 9.97067 108.711 10.3973 108.626 10.76H111.186C111.271 11.1013 111.314 11.528 111.314 12.04Z" fill="#EEEEEE"/>
</svg>
