<svg width="165" height="18" viewBox="0 0 165 18" fill="none" xmlns="http://www.w3.org/2000/svg">
<path d="M10.52 15.44C10.6053 15.7813 10.648 16.208 10.648 16.72C10.648 17.2107 10.6053 17.6373 10.52 18H0.28C0.194667 17.6373 0.152 17.2107 0.152 16.72C0.152 16.208 0.194667 15.7813 0.28 15.44H10.52ZM22.8205 14.16C22.8205 14.6507 22.7778 15.0773 22.6925 15.44H21.4125C21.4978 15.7813 21.5405 16.208 21.5405 16.72C21.5405 17.2107 21.4978 17.6373 21.4125 18H14.3725C14.2872 17.6373 14.2445 17.2107 14.2445 16.72C14.2445 16.208 14.2872 15.7813 14.3725 15.44H20.1325C20.0472 15.0773 20.0045 14.6507 20.0045 14.16C20.0045 13.648 20.0472 13.2213 20.1325 12.88H15.0125C14.9272 12.5173 14.8845 12.0907 14.8845 11.6C14.8845 11.088 14.9272 10.6613 15.0125 10.32H13.7325C13.6472 9.95733 13.6045 9.53067 13.6045 9.04C13.6045 8.528 13.6472 8.10133 13.7325 7.76H15.0125C14.9272 7.39733 14.8845 6.97067 14.8845 6.48C14.8845 5.968 14.9272 5.54133 15.0125 5.2H22.0525C22.1378 5.54133 22.1805 5.968 22.1805 6.48C22.1805 6.97067 22.1378 7.39733 22.0525 7.76H16.2925C16.3778 8.10133 16.4205 8.528 16.4205 9.04C16.4205 9.53067 16.3778 9.95733 16.2925 10.32H21.4125C21.4978 10.6613 21.5405 11.088 21.5405 11.6C21.5405 12.0907 21.4978 12.5173 21.4125 12.88H22.6925C22.7778 13.2213 22.8205 13.648 22.8205 14.16ZM36.273 11.6C36.273 12.0907 36.2303 12.5173 36.145 12.88H35.185C35.2703 13.2213 35.313 13.648 35.313 14.16C35.313 14.6507 35.2703 15.0773 35.185 15.44H33.585C33.6703 15.7813 33.713 16.208 33.713 16.72C33.713 17.2107 33.6703 17.6373 33.585 18H28.465C28.3797 17.6373 28.337 17.2107 28.337 16.72C28.337 16.208 28.3797 15.7813 28.465 15.44H26.865C26.7797 15.0773 26.737 14.6507 26.737 14.16C26.737 13.648 26.7797 13.2213 26.865 12.88H25.905C25.8197 12.5173 25.777 12.0907 25.777 11.6C25.777 11.088 25.8197 10.6613 25.905 10.32H26.865C26.7797 9.95733 26.737 9.53067 26.737 9.04C26.737 8.528 26.7797 8.10133 26.865 7.76H28.465C28.3797 7.39733 28.337 6.97067 28.337 6.48C28.337 5.968 28.3797 5.54133 28.465 5.2H33.585C33.6703 5.54133 33.713 5.968 33.713 6.48C33.713 6.97067 33.6703 7.39733 33.585 7.76H35.185C35.2703 8.10133 35.313 8.528 35.313 9.04C35.313 9.53067 35.2703 9.95733 35.185 10.32H36.145C36.2303 10.6613 36.273 11.088 36.273 11.6ZM33.585 12.88C33.4997 12.5173 33.457 12.0907 33.457 11.6C33.457 11.088 33.4997 10.6613 33.585 10.32H32.625C32.5397 9.95733 32.497 9.53067 32.497 9.04C32.497 8.528 32.5397 8.10133 32.625 7.76H29.425C29.5103 8.10133 29.553 8.528 29.553 9.04C29.553 9.53067 29.5103 9.95733 29.425 10.32H28.465C28.5503 10.6613 28.593 11.088 28.593 11.6C28.593 12.0907 28.5503 12.5173 28.465 12.88H29.425C29.5103 13.2213 29.553 13.648 29.553 14.16C29.553 14.6507 29.5103 15.0773 29.425 15.44H32.625C32.5397 15.0773 32.497 14.6507 32.497 14.16C32.497 13.648 32.5397 13.2213 32.625 12.88H33.585ZM42.3655 14.16C42.3655 14.6507 42.3228 15.0773 42.2375 15.44H45.4375C45.5228 15.7813 45.5655 16.208 45.5655 16.72C45.5655 17.2107 45.5228 17.6373 45.4375 18H40.3175C40.2322 17.6373 40.1895 17.2107 40.1895 16.72C40.1895 16.208 40.2322 15.7813 40.3175 15.44H38.7175C38.6322 15.0773 38.5895 14.6507 38.5895 14.16C38.5895 13.648 38.6322 13.2213 38.7175 12.88C38.6322 12.5173 38.5895 12.0907 38.5895 11.6C38.5895 11.088 38.6322 10.6613 38.7175 10.32C38.6322 9.95733 38.5895 9.53067 38.5895 9.04C38.5895 8.528 38.6322 8.10133 38.7175 7.76C38.6322 7.39733 38.5895 6.97067 38.5895 6.48C38.5895 5.968 38.6322 5.54133 38.7175 5.2H41.2775C41.3628 5.54133 41.4055 5.968 41.4055 6.48C41.4055 6.97067 41.3628 7.39733 41.2775 7.76C41.3628 8.10133 41.4055 8.528 41.4055 9.04C41.4055 9.53067 41.3628 9.95733 41.2775 10.32C41.3628 10.6613 41.4055 11.088 41.4055 11.6C41.4055 12.0907 41.3628 12.5173 41.2775 12.88H42.2375C42.3228 13.2213 42.3655 13.648 42.3655 14.16ZM48.9575 7.76C49.0428 8.10133 49.0855 8.528 49.0855 9.04C49.0855 9.53067 49.0428 9.95733 48.9575 10.32C49.0428 10.6613 49.0855 11.088 49.0855 11.6C49.0855 12.0907 49.0428 12.5173 48.9575 12.88C49.0428 13.2213 49.0855 13.648 49.0855 14.16C49.0855 14.6507 49.0428 15.0773 48.9575 15.44C49.0428 15.7813 49.0855 16.208 49.0855 16.72C49.0855 17.2107 49.0428 17.6373 48.9575 18H46.3975C46.3122 17.6373 46.2695 17.2107 46.2695 16.72C46.2695 16.208 46.3122 15.7813 46.3975 15.44H45.4375C45.3522 15.0773 45.3095 14.6507 45.3095 14.16C45.3095 13.648 45.3522 13.2213 45.4375 12.88H46.3975C46.3122 12.5173 46.2695 12.0907 46.2695 11.6C46.2695 11.088 46.3122 10.6613 46.3975 10.32C46.3122 9.95733 46.2695 9.53067 46.2695 9.04C46.2695 8.528 46.3122 8.10133 46.3975 7.76C46.3122 7.39733 46.2695 6.97067 46.2695 6.48C46.2695 5.968 46.3122 5.54133 46.3975 5.2H48.9575C49.0428 5.54133 49.0855 5.968 49.0855 6.48C49.0855 6.97067 49.0428 7.39733 48.9575 7.76ZM61.77 7.76C61.8553 8.10133 61.898 8.528 61.898 9.04C61.898 9.53067 61.8553 9.95733 61.77 10.32H59.21C59.1247 9.95733 59.082 9.53067 59.082 9.04C59.082 8.528 59.1247 8.10133 59.21 7.76H56.97C57.0553 8.10133 57.098 8.528 57.098 9.04C57.098 9.53067 57.0553 9.95733 56.97 10.32H56.01C56.0953 10.6613 56.138 11.088 56.138 11.6C56.138 12.0907 56.0953 12.5173 56.01 12.88C56.0953 13.2213 56.138 13.648 56.138 14.16C56.138 14.6507 56.0953 15.0773 56.01 15.44H57.93C58.0153 15.7813 58.058 16.208 58.058 16.72C58.058 17.2107 58.0153 17.6373 57.93 18H51.53C51.4447 17.6373 51.402 17.2107 51.402 16.72C51.402 16.208 51.4447 15.7813 51.53 15.44H53.45C53.3647 15.0773 53.322 14.6507 53.322 14.16C53.322 13.648 53.3647 13.2213 53.45 12.88C53.3647 12.5173 53.322 12.0907 53.322 11.6C53.322 11.088 53.3647 10.6613 53.45 10.32C53.3647 9.95733 53.322 9.53067 53.322 9.04C53.322 8.528 53.3647 8.10133 53.45 7.76H51.53C51.4447 7.39733 51.402 6.97067 51.402 6.48C51.402 5.968 51.4447 5.54133 51.53 5.2H54.73C54.8153 5.54133 54.858 5.968 54.858 6.48C54.858 6.97067 54.8153 7.39733 54.73 7.76H56.01C55.9247 7.39733 55.882 6.97067 55.882 6.48C55.882 5.968 55.9247 5.54133 56.01 5.2H60.81C60.8953 5.54133 60.938 5.968 60.938 6.48C60.938 6.97067 60.8953 7.39733 60.81 7.76H61.77ZM74.5825 12.88C74.6678 13.2213 74.7105 13.648 74.7105 14.16C74.7105 14.6507 74.6678 15.0773 74.5825 15.44H73.3025C73.3878 15.7813 73.4305 16.208 73.4305 16.72C73.4305 17.2107 73.3878 17.6373 73.3025 18H66.9025C66.8172 17.6373 66.7745 17.2107 66.7745 16.72C66.7745 16.208 66.8172 15.7813 66.9025 15.44H65.6225C65.5372 15.0773 65.4945 14.6507 65.4945 14.16C65.4945 13.648 65.5372 13.2213 65.6225 12.88H64.3425C64.2572 12.5173 64.2145 12.0907 64.2145 11.6C64.2145 11.088 64.2572 10.6613 64.3425 10.32H65.6225C65.5372 9.95733 65.4945 9.53067 65.4945 9.04C65.4945 8.528 65.5372 8.10133 65.6225 7.76H66.9025C66.8172 7.39733 66.7745 6.97067 66.7745 6.48C66.7745 5.968 66.8172 5.54133 66.9025 5.2H73.3025C73.3878 5.54133 73.4305 5.968 73.4305 6.48C73.4305 6.97067 73.3878 7.39733 73.3025 7.76H74.5825C74.6678 8.10133 74.7105 8.528 74.7105 9.04C74.7105 9.53067 74.6678 9.95733 74.5825 10.32H72.0225C71.9372 9.95733 71.8945 9.53067 71.8945 9.04C71.8945 8.528 71.9372 8.10133 72.0225 7.76H68.1825C68.2678 8.10133 68.3105 8.528 68.3105 9.04C68.3105 9.53067 68.2678 9.95733 68.1825 10.32H66.9025C66.9878 10.6613 67.0305 11.088 67.0305 11.6C67.0305 12.0907 66.9878 12.5173 66.9025 12.88H68.1825C68.2678 13.2213 68.3105 13.648 68.3105 14.16C68.3105 14.6507 68.2678 15.0773 68.1825 15.44H72.0225C71.9372 15.0773 71.8945 14.6507 71.8945 14.16C71.8945 13.648 71.9372 13.2213 72.0225 12.88H74.5825ZM87.523 9.04C87.523 9.53067 87.4803 9.95733 87.395 10.32C87.4803 10.6613 87.523 11.088 87.523 11.6C87.523 12.0907 87.4803 12.5173 87.395 12.88H80.675C80.7603 13.2213 80.803 13.648 80.803 14.16C80.803 14.6507 80.7603 15.0773 80.675 15.44H86.115C86.2003 15.7813 86.243 16.208 86.243 16.72C86.243 17.2107 86.2003 17.6373 86.115 18H79.715C79.6297 17.6373 79.587 17.2107 79.587 16.72C79.587 16.208 79.6297 15.7813 79.715 15.44H78.115C78.0297 15.0773 77.987 14.6507 77.987 14.16C77.987 13.648 78.0297 13.2213 78.115 12.88H77.155C77.0697 12.5173 77.027 12.0907 77.027 11.6C77.027 11.088 77.0697 10.6613 77.155 10.32H78.115C78.0297 9.95733 77.987 9.53067 77.987 9.04C77.987 8.528 78.0297 8.10133 78.115 7.76H79.715C79.6297 7.39733 79.587 6.97067 79.587 6.48C79.587 5.968 79.6297 5.54133 79.715 5.2H86.115C86.2003 5.54133 86.243 5.968 86.243 6.48C86.243 6.97067 86.2003 7.39733 86.115 7.76H87.395C87.4803 8.10133 87.523 8.528 87.523 9.04ZM84.835 10.32C84.7497 9.95733 84.707 9.53067 84.707 9.04C84.707 8.528 84.7497 8.10133 84.835 7.76H80.675C80.7603 8.10133 80.803 8.528 80.803 9.04C80.803 9.53067 80.7603 9.95733 80.675 10.32H84.835ZM100.208 15.44C100.293 15.7813 100.336 16.208 100.336 16.72C100.336 17.2107 100.293 17.6373 100.208 18H89.9675C89.8822 17.6373 89.8395 17.2107 89.8395 16.72C89.8395 16.208 89.8822 15.7813 89.9675 15.44H100.208ZM113.02 12.88C113.105 13.2213 113.148 13.648 113.148 14.16C113.148 14.6507 113.105 15.0773 113.02 15.44H111.74C111.825 15.7813 111.868 16.208 111.868 16.72C111.868 17.2107 111.825 17.6373 111.74 18H105.34C105.255 17.6373 105.212 17.2107 105.212 16.72C105.212 16.208 105.255 15.7813 105.34 15.44H104.06C103.975 15.0773 103.932 14.6507 103.932 14.16C103.932 13.648 103.975 13.2213 104.06 12.88H102.78C102.695 12.5173 102.652 12.0907 102.652 11.6C102.652 11.088 102.695 10.6613 102.78 10.32H104.06C103.975 9.95733 103.932 9.53067 103.932 9.04C103.932 8.528 103.975 8.10133 104.06 7.76H105.34C105.255 7.39733 105.212 6.97067 105.212 6.48C105.212 5.968 105.255 5.54133 105.34 5.2H111.74C111.825 5.54133 111.868 5.968 111.868 6.48C111.868 6.97067 111.825 7.39733 111.74 7.76H113.02C113.105 8.10133 113.148 8.528 113.148 9.04C113.148 9.53067 113.105 9.95733 113.02 10.32H110.46C110.375 9.95733 110.332 9.53067 110.332 9.04C110.332 8.528 110.375 8.10133 110.46 7.76H106.62C106.705 8.10133 106.748 8.528 106.748 9.04C106.748 9.53067 106.705 9.95733 106.62 10.32H105.34C105.425 10.6613 105.468 11.088 105.468 11.6C105.468 12.0907 105.425 12.5173 105.34 12.88H106.62C106.705 13.2213 106.748 13.648 106.748 14.16C106.748 14.6507 106.705 15.0773 106.62 15.44H110.46C110.375 15.0773 110.332 14.6507 110.332 14.16C110.332 13.648 110.375 13.2213 110.46 12.88H113.02ZM125.961 11.6C125.961 12.0907 125.918 12.5173 125.833 12.88H124.873C124.958 13.2213 125.001 13.648 125.001 14.16C125.001 14.6507 124.958 15.0773 124.873 15.44H123.273C123.358 15.7813 123.401 16.208 123.401 16.72C123.401 17.2107 123.358 17.6373 123.273 18H118.153C118.067 17.6373 118.025 17.2107 118.025 16.72C118.025 16.208 118.067 15.7813 118.153 15.44H116.553C116.467 15.0773 116.424 14.6507 116.424 14.16C116.424 13.648 116.467 13.2213 116.553 12.88H115.593C115.507 12.5173 115.465 12.0907 115.465 11.6C115.465 11.088 115.507 10.6613 115.593 10.32H116.553C116.467 9.95733 116.424 9.53067 116.424 9.04C116.424 8.528 116.467 8.10133 116.553 7.76H118.153C118.067 7.39733 118.025 6.97067 118.025 6.48C118.025 5.968 118.067 5.54133 118.153 5.2H123.273C123.358 5.54133 123.401 5.968 123.401 6.48C123.401 6.97067 123.358 7.39733 123.273 7.76H124.873C124.958 8.10133 125.001 8.528 125.001 9.04C125.001 9.53067 124.958 9.95733 124.873 10.32H125.833C125.918 10.6613 125.961 11.088 125.961 11.6ZM123.273 12.88C123.187 12.5173 123.145 12.0907 123.145 11.6C123.145 11.088 123.187 10.6613 123.273 10.32H122.312C122.227 9.95733 122.185 9.53067 122.185 9.04C122.185 8.528 122.227 8.10133 122.312 7.76H119.113C119.198 8.10133 119.241 8.528 119.241 9.04C119.241 9.53067 119.198 9.95733 119.113 10.32H118.153C118.238 10.6613 118.281 11.088 118.281 11.6C118.281 12.0907 118.238 12.5173 118.153 12.88H119.113C119.198 13.2213 119.241 13.648 119.241 14.16C119.241 14.6507 119.198 15.0773 119.113 15.44H122.312C122.227 15.0773 122.185 14.6507 122.185 14.16C122.185 13.648 122.227 13.2213 122.312 12.88H123.273ZM138.645 2.64C138.73 2.98133 138.773 3.408 138.773 3.92C138.773 4.41067 138.73 4.83733 138.645 5.2C138.73 5.54133 138.773 5.968 138.773 6.48C138.773 6.97067 138.73 7.39733 138.645 7.76C138.73 8.10133 138.773 8.528 138.773 9.04C138.773 9.53067 138.73 9.95733 138.645 10.32C138.73 10.6613 138.773 11.088 138.773 11.6C138.773 12.0907 138.73 12.5173 138.645 12.88C138.73 13.2213 138.773 13.648 138.773 14.16C138.773 14.6507 138.73 15.0773 138.645 15.44C138.73 15.7813 138.773 16.208 138.773 16.72C138.773 17.2107 138.73 17.6373 138.645 18H136.085C136 17.6373 135.957 17.2107 135.957 16.72C135.957 16.208 136 15.7813 136.085 15.44H135.125C135.04 15.0773 134.997 14.6507 134.997 14.16C134.997 13.648 135.04 13.2213 135.125 12.88H136.085C136 12.5173 135.957 12.0907 135.957 11.6C135.957 11.088 136 10.6613 136.085 10.32H135.125C135.04 9.95733 134.997 9.53067 134.997 9.04C134.997 8.528 135.04 8.10133 135.125 7.76H136.085C136 7.39733 135.957 6.97067 135.957 6.48C135.957 5.968 136 5.54133 136.085 5.2C136 4.83733 135.957 4.41067 135.957 3.92C135.957 3.408 136 2.98133 136.085 2.64C136 2.27733 135.957 1.85067 135.957 1.36C135.957 0.847999 136 0.421333 136.085 0.0799999H138.645C138.73 0.421333 138.773 0.847999 138.773 1.36C138.773 1.85067 138.73 2.27733 138.645 2.64ZM134.613 6.48C134.613 6.97067 134.57 7.39733 134.485 7.76H131.285C131.37 8.10133 131.413 8.528 131.413 9.04C131.413 9.53067 131.37 9.95733 131.285 10.32H130.325C130.41 10.6613 130.453 11.088 130.453 11.6C130.453 12.0907 130.41 12.5173 130.325 12.88H131.285C131.37 13.2213 131.413 13.648 131.413 14.16C131.413 14.6507 131.37 15.0773 131.285 15.44H134.485C134.57 15.7813 134.613 16.208 134.613 16.72C134.613 17.2107 134.57 17.6373 134.485 18H130.965C130.88 17.6373 130.837 17.2107 130.837 16.72C130.837 16.208 130.88 15.7813 130.965 15.44H129.365C129.28 15.0773 129.237 14.6507 129.237 14.16C129.237 13.648 129.28 13.2213 129.365 12.88H128.405C128.32 12.5173 128.277 12.0907 128.277 11.6C128.277 11.088 128.32 10.6613 128.405 10.32H129.365C129.28 9.95733 129.237 9.53067 129.237 9.04C129.237 8.528 129.28 8.10133 129.365 7.76H130.965C130.88 7.39733 130.837 6.97067 130.837 6.48C130.837 5.968 130.88 5.54133 130.965 5.2H134.485C134.57 5.54133 134.613 5.968 134.613 6.48ZM151.586 9.04C151.586 9.53067 151.543 9.95733 151.458 10.32C151.543 10.6613 151.586 11.088 151.586 11.6C151.586 12.0907 151.543 12.5173 151.458 12.88H144.738C144.823 13.2213 144.866 13.648 144.866 14.16C144.866 14.6507 144.823 15.0773 144.738 15.44H150.178C150.263 15.7813 150.306 16.208 150.306 16.72C150.306 17.2107 150.263 17.6373 150.178 18H143.778C143.692 17.6373 143.65 17.2107 143.65 16.72C143.65 16.208 143.692 15.7813 143.778 15.44H142.178C142.092 15.0773 142.049 14.6507 142.049 14.16C142.049 13.648 142.092 13.2213 142.178 12.88H141.218C141.132 12.5173 141.09 12.0907 141.09 11.6C141.09 11.088 141.132 10.6613 141.218 10.32H142.178C142.092 9.95733 142.049 9.53067 142.049 9.04C142.049 8.528 142.092 8.10133 142.178 7.76H143.778C143.692 7.39733 143.65 6.97067 143.65 6.48C143.65 5.968 143.692 5.54133 143.778 5.2H150.178C150.263 5.54133 150.306 5.968 150.306 6.48C150.306 6.97067 150.263 7.39733 150.178 7.76H151.458C151.543 8.10133 151.586 8.528 151.586 9.04ZM148.898 10.32C148.812 9.95733 148.77 9.53067 148.77 9.04C148.77 8.528 148.812 8.10133 148.898 7.76H144.738C144.823 8.10133 144.866 8.528 144.866 9.04C144.866 9.53067 144.823 9.95733 144.738 10.32H148.898ZM164.27 15.44C164.355 15.7813 164.398 16.208 164.398 16.72C164.398 17.2107 164.355 17.6373 164.27 18H154.03C153.945 17.6373 153.902 17.2107 153.902 16.72C153.902 16.208 153.945 15.7813 154.03 15.44H164.27Z" fill="#7CAAAD"/>
</svg>
